<svg width="789" height="490" viewBox="0 0 789 490" fill="none" xmlns="http://www.w3.org/2000/svg">
<g clip-path="url(#clip0_1_26)">
<path d="M504.779 474.976C510.367 471.833 517.468 471.716 523.173 474.627C528.877 477.537 532.835 483.474 533.534 489.877C521.776 489.877 510.251 487.2 504.779 474.976Z" fill="#EBEBEB"/>
<path d="M518.516 462.869C526.432 465.43 535.512 463.8 541.915 458.678C548.434 453.556 552.043 444.941 551.228 436.792C536.327 439.702 522.357 446.105 518.516 462.869Z" fill="#EBEBEB"/>
<path d="M467.292 482.776C467.292 482.776 467.525 482.659 467.991 482.427C468.573 482.194 469.271 481.961 470.086 481.728C471.949 481.146 474.627 480.215 478.003 479.051C484.638 476.722 493.719 473.463 503.614 469.155C508.504 466.943 513.16 464.848 517.235 462.752C521.309 460.657 525.035 458.561 527.945 456.699C530.855 454.836 533.3 453.206 534.813 452.042C536.327 450.878 537.142 450.063 537.142 450.063C537.142 450.063 537.025 450.296 536.56 450.645C536.21 450.994 535.628 451.576 534.93 452.159C533.417 453.439 531.088 455.069 528.178 457.048C525.151 458.911 521.542 461.006 517.468 463.218C513.277 465.314 508.736 467.525 503.847 469.737C493.952 474.045 484.871 477.304 478.119 479.516C474.743 480.564 472.065 481.495 470.203 481.961C469.271 482.194 468.573 482.427 467.991 482.543C467.642 482.776 467.292 482.892 467.292 482.776Z" fill="#E0E0E0"/>
<path d="M519.913 481.845C519.797 481.961 518.516 481.03 516.188 479.749C513.86 478.469 510.484 476.955 506.526 475.907C502.568 474.86 498.959 474.394 496.281 474.278C493.603 474.161 491.974 474.278 491.974 474.161C491.974 474.161 492.323 474.045 493.138 473.928C493.836 473.812 495 473.812 496.281 473.812C498.959 473.812 502.684 474.161 506.642 475.209C510.6 476.257 513.976 477.886 516.305 479.283C517.469 479.982 518.4 480.564 518.982 481.03C519.564 481.495 519.913 481.728 519.913 481.845Z" fill="#E0E0E0"/>
<path d="M242.61 429.458C239.816 437.025 240.98 445.989 245.753 452.508C250.526 459.027 258.675 462.869 266.708 462.52C264.38 447.851 258.792 433.881 242.61 429.458Z" fill="#EBEBEB"/>
<path d="M240.282 422.24C240.398 422.24 240.748 423.87 241.679 426.431C242.494 428.992 243.891 432.484 245.87 436.093C247.849 439.702 249.945 442.729 251.574 444.824C253.204 446.92 254.368 448.2 254.252 448.2C254.252 448.2 253.903 447.968 253.321 447.386C252.739 446.803 252.04 446.105 251.109 445.057C249.362 442.962 247.151 439.935 245.171 436.326C243.192 432.717 241.912 429.108 241.213 426.547C240.864 425.267 240.631 424.219 240.398 423.404C240.282 422.705 240.282 422.24 240.282 422.24Z" fill="#E0E0E0"/>
<path d="M9.89536 135.741C5.47156 147.382 7.45063 161.236 14.7848 171.364C22.119 181.492 34.8083 187.429 47.2648 186.847C43.7723 164.146 35.0412 142.609 9.89536 135.741Z" fill="#EBEBEB"/>
<path d="M6.40288 124.565C6.40288 124.565 6.63571 125.147 6.98496 126.311C7.3342 127.475 7.79987 129.105 8.38195 131.084C9.66252 135.042 11.758 140.397 14.7848 146.102C17.8116 151.69 21.1877 156.463 23.7488 159.722C25.0294 161.352 26.0771 162.633 26.892 163.564C27.707 164.495 28.0562 164.961 28.0562 164.961C28.0562 164.961 27.5905 164.495 26.7756 163.68C25.9607 162.866 24.7966 161.585 23.516 159.955C20.8384 156.696 17.346 152.039 14.3191 146.335C11.2923 140.63 9.19686 135.275 8.0327 131.2C7.45062 129.221 6.98496 127.592 6.75213 126.427C6.40288 125.263 6.28646 124.565 6.40288 124.565Z" fill="#E0E0E0"/>
<path d="M49.2438 367.408C42.9573 372.414 39.4649 380.796 40.2798 388.828C41.0947 396.861 46.1006 404.312 53.2019 408.153C58.7899 394.416 61.0018 379.515 49.2438 367.408Z" fill="#EBEBEB"/>
<path d="M50.9901 360.074C51.1066 360.074 50.6409 361.704 50.0588 364.381C49.4767 367.059 48.8947 370.668 48.6618 374.742C48.5454 378.817 48.7782 382.542 49.1275 385.22C49.4767 387.897 49.826 389.527 49.7096 389.527C49.7096 389.527 49.5931 389.178 49.3603 388.363C49.1275 387.664 48.8947 386.617 48.6618 385.22C48.1962 382.542 47.8469 378.817 47.9633 374.626C48.1962 370.435 48.7782 366.826 49.4767 364.148C49.826 362.868 50.1752 361.82 50.4081 361.122C50.7573 360.423 50.8737 360.074 50.9901 360.074Z" fill="#E0E0E0"/>
<path d="M265.311 73.1091C272.529 76.7179 281.61 76.3687 288.478 72.2941C295.463 68.2196 300.12 60.5362 300.585 52.5035C285.801 53.202 271.365 57.3929 265.311 73.1091Z" fill="#EBEBEB"/>
<path d="M257.861 74.6225C257.861 74.5061 259.491 74.2732 262.168 73.6911C264.846 73.1091 268.338 72.1777 272.18 70.5479C276.022 69.0345 279.281 67.1719 281.493 65.7749C283.822 64.3779 285.102 63.3301 285.219 63.4466C285.219 63.4466 284.986 63.7958 284.404 64.2615C283.822 64.7271 282.89 65.4256 281.843 66.1241C279.631 67.6375 276.371 69.5002 272.529 71.13C268.688 72.6434 265.079 73.6911 262.401 74.1568C261.121 74.3896 259.956 74.5061 259.258 74.6225C258.327 74.6225 257.861 74.6225 257.861 74.6225Z" fill="#E0E0E0"/>
<path d="M235.16 70.8972C245.521 68.6853 254.601 60.8854 258.443 50.9901C262.285 41.0947 260.771 29.2203 254.601 20.6056C239.933 33.6441 228.524 49.7095 235.16 70.8972Z" fill="#EBEBEB"/>
<path d="M228.757 78.5806C228.757 78.5806 229.106 78.1149 229.688 77.4164C230.387 76.718 231.318 75.5538 232.366 74.1568C234.578 71.3628 237.488 67.4047 240.166 62.7481C242.843 57.975 244.706 53.4348 245.754 50.0588C246.336 48.4289 246.802 47.0319 247.034 46.1006C247.267 45.1693 247.5 44.5872 247.5 44.5872C247.5 44.5872 247.384 45.1693 247.267 46.1006C247.034 47.0319 246.685 48.4289 246.103 50.1752C245.055 53.5512 243.193 58.2079 240.632 62.9809C237.954 67.7539 235.044 71.7121 232.599 74.3896C231.435 75.7866 230.387 76.8344 229.688 77.5329C229.223 78.2314 228.757 78.5806 228.757 78.5806Z" fill="#E0E0E0"/>
<path d="M330.621 469.737C332.833 474.045 337.257 477.188 342.146 477.77C346.919 478.352 352.041 476.257 355.068 472.531C347.618 467.525 339.236 464.382 330.621 469.737Z" fill="#EBEBEB"/>
<path d="M326.547 467.875C326.663 467.758 330.155 469.737 334.928 470.902C339.701 472.182 343.776 472.066 343.776 472.182C343.776 472.299 342.728 472.415 341.098 472.299C339.469 472.299 337.14 472.066 334.812 471.367C332.367 470.785 330.272 469.854 328.875 469.155C327.245 468.457 326.43 467.875 326.547 467.875Z" fill="#E0E0E0"/>
<path d="M438.538 51.805C441.565 55.6467 446.455 57.8586 451.344 57.3929C456.233 57.0437 460.774 54.0169 463.102 49.7095C454.836 46.3335 445.872 44.82 438.538 51.805Z" fill="#EBEBEB"/>
<path d="M434.115 50.6408C434.115 50.408 437.956 51.805 442.962 52.0378C447.852 52.3871 451.81 51.4557 451.926 51.6886C451.926 51.805 450.995 52.0378 449.365 52.3871C447.735 52.6199 445.523 52.8527 442.962 52.7363C440.518 52.6199 438.189 52.1542 436.676 51.6886C435.046 51.2229 434.115 50.7572 434.115 50.6408Z" fill="#E0E0E0"/>
<path d="M718.169 87.5446C725.969 89.6401 734.7 87.661 740.753 82.3059C746.807 76.9508 749.95 68.5688 748.786 60.5362C734.467 64.1451 721.196 71.0136 718.169 87.5446Z" fill="#EBEBEB"/>
<path d="M711.3 90.455C711.3 90.3386 712.813 89.8729 715.374 88.7088C717.819 87.661 721.195 86.0312 724.571 83.7029C727.947 81.491 730.857 79.0463 732.836 77.1836C734.816 75.321 735.863 74.1568 735.98 74.1568C735.98 74.1568 735.747 74.506 735.281 75.0881C734.816 75.6702 734.117 76.4851 733.069 77.4164C731.207 79.3955 728.296 81.8402 724.92 84.1686C721.428 86.4969 718.052 88.0103 715.49 89.058C714.21 89.5237 713.162 89.8729 712.464 90.1058C711.649 90.455 711.3 90.5714 711.3 90.455Z" fill="#E0E0E0"/>
<path d="M745.76 442.38C759.38 439.236 771.255 428.875 776.028 415.72C780.917 402.565 778.705 386.966 770.323 375.673C751.348 393.019 736.563 414.556 745.76 442.38Z" fill="#EBEBEB"/>
<path d="M737.494 452.624C737.494 452.624 737.959 452.042 738.774 450.994C739.589 450.063 740.87 448.55 742.383 446.687C743.896 444.824 745.526 442.612 747.272 440.051C749.019 437.49 750.765 434.58 752.511 431.437C754.141 428.293 755.654 425.15 756.819 422.356C757.983 419.446 758.914 416.885 759.613 414.673C760.311 412.461 760.893 410.598 761.242 409.318C761.592 408.037 761.824 407.339 761.824 407.339C761.824 407.339 761.708 408.037 761.475 409.318C761.242 410.598 760.777 412.461 760.078 414.673C759.38 416.885 758.448 419.562 757.401 422.473C756.236 425.383 754.839 428.526 753.093 431.669C751.347 434.813 749.601 437.723 747.855 440.284C746.108 442.845 744.362 445.057 742.849 446.92C741.335 448.783 740.055 450.18 739.123 451.111C738.076 452.159 737.61 452.624 737.494 452.624Z" fill="#E0E0E0"/>
<path d="M587.783 295.579C580.449 254.601 545.175 218.745 503.614 215.369C481.03 213.506 458.212 220.608 435.628 217.93C416.652 215.602 398.724 206.172 386.151 191.853C367.524 170.665 361.238 140.514 341.564 120.374C314.439 92.5505 266.941 92.0848 233.879 112.574C200.817 133.063 180.794 169.967 171.713 207.686L171.364 219.211C169.385 258.443 179.629 303.961 202.447 338.886C225.497 374.276 240.631 388.828 282.657 414.323C318.281 435.977 388.13 445.406 429.807 446.454C471.484 447.502 514.325 435.045 545.64 407.571C576.84 380.097 595.117 336.674 587.783 295.579Z" fill="#A016A3"/>
<g opacity="0.8">
<path d="M587.783 295.579C580.449 254.601 545.175 218.745 503.614 215.369C481.03 213.506 458.212 220.608 435.628 217.93C416.652 215.602 398.724 206.172 386.151 191.853C367.524 170.665 361.238 140.514 341.564 120.374C314.439 92.5505 266.941 92.0848 233.879 112.574C200.817 133.063 180.794 169.967 171.713 207.686L171.364 219.211C169.385 258.443 179.629 303.961 202.447 338.886C225.497 374.276 240.631 388.828 282.657 414.323C318.281 435.977 388.13 445.406 429.807 446.454C471.484 447.502 514.325 435.045 545.64 407.571C576.84 380.097 595.117 336.674 587.783 295.579Z" fill="white"/>
</g>
<path d="M628.607 442.07C630.205 431.063 622.576 420.845 611.569 419.248C600.562 417.651 590.344 425.279 588.746 436.286C587.149 447.294 594.778 457.512 605.785 459.109C616.792 460.706 627.01 453.078 628.607 442.07Z" fill="#A016A3"/>
<path opacity="0.8" d="M628.607 442.07C630.205 431.063 622.576 420.845 611.569 419.248C600.562 417.651 590.344 425.279 588.746 436.286C587.149 447.294 594.778 457.512 605.785 459.109C616.792 460.706 627.01 453.078 628.607 442.07Z" fill="white"/>
<path d="M467.758 284.753C468.108 324.8 459.377 355.534 441.565 376.721C423.753 397.909 399.19 408.619 368.223 408.968C337.024 409.318 312.227 398.957 293.833 378.118C275.44 357.28 266.01 326.779 265.661 286.732L264.962 216.184C264.613 176.253 273.344 145.636 291.156 124.216C308.967 102.911 333.531 92.0848 364.731 91.7356C395.814 91.3863 420.494 101.747 438.887 122.819C457.281 143.773 466.711 174.274 467.06 214.205L467.758 284.753ZM415.604 206.871C415.371 181.608 410.948 162.982 402.333 150.991C393.718 139 381.378 132.947 365.08 133.18C348.898 133.296 336.558 139.466 328.292 151.69C320.027 163.913 315.952 182.656 316.185 207.918L317 293.6C317.233 318.979 321.657 337.722 330.388 349.829C339.003 361.936 351.459 367.874 367.757 367.757C383.939 367.641 396.163 361.471 404.428 349.247C412.694 337.023 416.652 318.164 416.419 292.669L415.604 206.871Z" fill="#A016A3"/>
<g opacity="0.4">
<path d="M467.758 284.753C468.108 324.8 459.377 355.534 441.565 376.721C423.753 397.909 399.19 408.619 368.223 408.968C337.024 409.318 312.227 398.957 293.833 378.118C275.44 357.28 266.01 326.779 265.661 286.732L264.962 216.184C264.613 176.253 273.344 145.636 291.156 124.216C308.967 102.911 333.531 92.0848 364.731 91.7356C395.814 91.3863 420.494 101.747 438.887 122.819C457.281 143.773 466.711 174.274 467.06 214.205L467.758 284.753ZM415.604 206.871C415.371 181.608 410.948 162.982 402.333 150.991C393.718 139 381.378 132.947 365.08 133.18C348.898 133.296 336.558 139.466 328.292 151.69C320.027 163.913 315.952 182.656 316.185 207.918L317 293.6C317.233 318.979 321.657 337.722 330.388 349.829C339.003 361.936 351.459 367.874 367.757 367.757C383.939 367.641 396.163 361.471 404.428 349.247C412.694 337.023 416.652 318.164 416.419 292.669L415.604 206.871Z" fill="black"/>
</g>
<path d="M497.444 284.404C497.794 324.451 489.063 355.184 471.251 376.372C453.439 397.56 428.876 408.27 397.909 408.619C366.71 408.968 341.913 398.607 323.519 377.769C305.126 356.931 295.696 326.43 295.347 286.383L294.648 215.835C294.299 175.904 303.03 145.287 320.842 123.866C338.653 102.562 363.217 91.7356 394.417 91.3863C425.5 91.0371 450.18 101.398 468.573 122.469C486.967 143.424 496.397 173.925 496.746 213.856L497.444 284.404ZM445.174 206.521C444.941 181.259 440.517 162.633 431.902 150.642C423.288 138.651 410.948 132.597 394.649 132.83C378.468 132.947 366.128 139.117 357.862 151.34C349.597 163.564 345.522 182.307 345.755 207.569L346.57 293.251C346.803 318.63 351.226 337.373 359.958 349.48C368.572 361.587 381.029 367.524 397.327 367.408C413.509 367.292 425.732 361.122 433.998 348.898C442.263 336.674 446.222 317.815 445.989 292.32L445.174 206.521Z" fill="#A016A3"/>
<path d="M294.765 220.026C294.881 220.142 287.896 222.936 279.398 226.079C270.899 229.339 263.914 231.784 263.798 231.667C263.682 231.551 270.667 228.757 279.165 225.614C287.663 222.354 294.648 219.909 294.765 220.026Z" fill="#A016A3"/>
<path d="M296.394 247.965C296.511 248.082 289.526 250.876 281.027 254.019C272.529 257.279 265.544 259.723 265.428 259.607C265.311 259.491 272.296 256.697 280.795 253.553C289.409 250.294 296.394 247.733 296.394 247.965Z" fill="#A016A3"/>
<path d="M298.141 275.789C298.257 275.905 291.272 278.699 282.774 281.842C274.275 285.102 267.29 287.547 267.174 287.43C267.058 287.314 274.043 284.52 282.541 281.377C291.156 278.117 298.141 275.672 298.141 275.789Z" fill="#A016A3"/>
<path d="M299.887 303.612C300.003 303.729 293.018 306.523 284.52 309.666C276.022 312.925 269.037 315.37 268.92 315.254C268.804 315.137 275.789 312.343 284.287 309.2C292.785 305.94 299.77 303.496 299.887 303.612Z" fill="#A016A3"/>
<path d="M301.633 331.552C301.633 331.552 301.284 331.785 300.585 332.134C299.887 332.483 298.839 332.832 297.559 333.415C294.998 334.462 291.505 335.743 287.663 337.256C283.822 338.77 280.213 340.05 277.652 340.865C276.371 341.331 275.323 341.68 274.625 341.913C273.926 342.146 273.461 342.262 273.461 342.262C273.461 342.262 273.81 342.029 274.508 341.68C275.207 341.331 276.255 340.982 277.535 340.399C280.096 339.352 283.589 338.071 287.43 336.558C291.272 335.044 294.881 333.764 297.442 332.949C298.723 332.483 299.771 332.134 300.469 331.901C301.168 331.552 301.517 331.435 301.633 331.552Z" fill="#A016A3"/>
<path d="M309.549 357.047C309.549 357.163 308.269 357.745 306.057 358.56C303.845 359.492 300.818 360.656 297.442 361.936C294.066 363.217 290.923 364.381 288.711 365.08C286.499 365.895 285.102 366.36 284.986 366.244C284.986 366.127 286.266 365.545 288.478 364.73C290.69 363.799 293.717 362.635 297.093 361.354C300.469 360.074 303.612 358.91 305.824 358.211C308.152 357.396 309.549 356.931 309.549 357.047Z" fill="#A016A3"/>
<path d="M326.546 380.33C326.546 380.447 325.382 380.912 323.403 381.727C321.424 382.542 318.746 383.59 315.719 384.754C312.692 385.918 309.898 386.849 307.919 387.548C305.94 388.246 304.66 388.596 304.66 388.596C304.66 388.479 305.824 388.014 307.803 387.199C309.782 386.384 312.46 385.336 315.486 384.172C318.513 383.008 321.307 382.076 323.286 381.378C325.265 380.679 326.546 380.33 326.546 380.33Z" fill="#A016A3"/>
<path d="M354.835 395.697C354.835 395.813 353.671 396.279 351.692 397.094C349.713 397.909 347.035 398.957 344.009 400.121C340.982 401.285 338.188 402.216 336.209 402.915C334.23 403.613 332.949 403.962 332.949 403.962C332.949 403.962 334.113 403.38 336.092 402.565C338.071 401.751 340.749 400.703 343.776 399.539C346.803 398.375 349.597 397.443 351.576 396.745C353.555 396.046 354.835 395.581 354.835 395.697Z" fill="#A016A3"/>
<path d="M440.284 336.209C440.401 336.325 431.553 340.516 420.494 345.405C409.55 350.295 400.586 354.253 400.47 354.02C400.354 353.904 409.201 349.713 420.261 344.823C431.204 339.934 440.168 336.092 440.284 336.209Z" fill="#A016A3"/>
<path d="M445.989 312.343C446.105 312.46 438.771 315.952 429.691 320.027C420.61 324.101 413.16 327.245 413.16 327.128C413.043 327.012 420.377 323.519 429.458 319.445C438.538 315.37 445.989 312.227 445.989 312.343Z" fill="#A016A3"/>
<path d="M448.666 285.568C448.783 285.684 441.448 289.177 432.368 293.251C423.288 297.326 415.837 300.469 415.837 300.353C415.721 300.236 423.055 296.744 432.135 292.669C441.216 288.595 448.666 285.451 448.666 285.568Z" fill="#A016A3"/>
<path d="M451.344 258.792C451.46 258.909 444.126 262.401 435.045 266.476C425.965 270.55 418.514 273.693 418.514 273.577C418.398 273.46 425.732 269.968 434.813 265.893C443.893 261.819 451.344 258.559 451.344 258.792Z" fill="#A016A3"/>
<path d="M454.021 231.9C454.138 232.016 446.804 235.509 437.723 239.584C428.643 243.658 421.192 246.801 421.192 246.685C421.076 246.568 428.41 243.076 437.49 239.001C446.571 234.927 453.905 231.784 454.021 231.9Z" fill="#A016A3"/>
<path d="M448.666 208.035C448.783 208.151 441.448 211.644 432.368 215.718C423.288 219.793 415.837 222.936 415.837 222.82C415.721 222.703 423.055 219.211 432.135 215.136C441.216 211.062 448.666 207.918 448.666 208.035Z" fill="#A016A3"/>
<path d="M448.666 182.423C448.783 182.54 441.448 186.032 432.368 190.107C423.288 194.181 415.837 197.325 415.837 197.208C415.721 197.092 423.055 193.599 432.135 189.525C441.216 185.45 448.666 182.191 448.666 182.423Z" fill="#A016A3"/>
<path d="M445.989 158.209C446.105 158.325 438.771 161.818 429.691 165.892C420.61 169.967 413.16 173.11 413.16 172.994C413.043 172.877 420.377 169.385 429.458 165.31C438.538 161.236 445.989 157.976 445.989 158.209Z" fill="#A016A3"/>
<path d="M423.055 141.329C423.171 141.445 418.747 143.657 413.159 146.102C407.688 148.546 403.147 150.526 403.031 150.293C402.915 150.176 407.338 147.964 412.926 145.52C418.398 143.075 422.938 141.096 423.055 141.329Z" fill="#A016A3"/>
<path d="M410.715 130.968C410.831 131.084 406.408 133.296 400.82 135.741C395.348 138.185 390.808 140.048 390.691 139.932C390.575 139.815 394.999 137.603 400.587 135.159C406.175 132.714 410.715 130.851 410.715 130.968Z" fill="#A016A3"/>
<path d="M296.045 186.265C296.162 186.382 289.177 189.175 280.678 192.319C272.18 195.578 265.195 198.023 265.079 197.907C264.962 197.79 271.947 194.996 280.446 191.853C289.06 188.593 296.045 186.149 296.045 186.265Z" fill="#A016A3"/>
<path d="M304.66 151.573C304.777 151.69 297.21 154.716 288.013 158.209C278.7 161.701 271.132 164.379 271.132 164.263C271.016 164.146 278.583 161.119 287.78 157.627C296.977 154.134 304.544 151.457 304.66 151.573Z" fill="#A016A3"/>
<path d="M327.012 117.231C327.128 117.347 317.582 121.072 305.824 125.496C294.066 129.92 284.52 133.296 284.52 133.18C284.404 133.063 293.95 129.338 305.708 124.914C317.349 120.49 326.895 116.998 327.012 117.231Z" fill="#A016A3"/>
<path d="M492.322 336.674C492.322 336.674 492.206 336.674 491.856 336.558C491.507 336.441 491.042 336.209 490.459 335.976C489.877 335.743 489.062 335.626 488.131 335.277C487.2 335.161 486.036 334.928 484.872 334.928C479.866 334.579 472.415 336.441 465.197 341.797C461.588 344.358 458.096 347.967 454.836 352.041C451.46 356.116 448.201 360.772 444.475 365.429C440.75 370.086 436.443 374.742 431.087 378.467C425.732 382.076 419.329 384.754 412.577 386.034C405.825 387.315 398.84 386.966 392.554 385.336C386.267 383.823 380.447 381.378 374.975 378.817C369.62 376.256 364.498 373.811 359.725 371.599C354.952 369.503 350.179 367.874 345.871 366.826C341.447 365.778 337.489 365.429 333.88 365.429C330.271 365.429 327.245 366.011 324.8 366.709C322.355 367.408 320.609 368.223 319.445 368.805C318.863 369.154 318.397 369.387 318.164 369.503C317.815 369.62 317.699 369.736 317.699 369.736C317.699 369.736 317.815 369.62 318.164 369.503C318.513 369.271 318.863 369.038 319.445 368.689C320.609 367.99 322.355 367.292 324.8 366.477C327.245 365.778 330.271 365.196 333.88 365.08C337.489 364.963 341.564 365.429 345.988 366.36C350.411 367.408 355.068 368.921 359.958 371.017C364.847 373.112 369.853 375.673 375.324 378.118C380.679 380.563 386.5 383.008 392.787 384.521C399.073 386.034 405.825 386.384 412.577 385.22C419.329 384.055 425.616 381.378 430.855 377.769C436.21 374.16 440.401 369.503 444.126 364.963C447.851 360.307 451.111 355.766 454.487 351.575C457.863 347.501 461.356 343.892 464.964 341.214C472.299 335.859 479.866 333.997 484.872 334.462C486.152 334.462 487.2 334.812 488.248 334.928C489.179 335.161 489.994 335.394 490.576 335.626C491.158 335.859 491.624 336.092 491.973 336.209C492.206 336.558 492.322 336.674 492.322 336.674Z" fill="white"/>
<path d="M499.657 258.909C499.657 259.025 498.842 259.025 497.445 259.607C496.048 260.073 494.069 261.004 491.857 262.634C489.645 264.147 487.2 266.359 484.406 268.571C481.612 270.783 478.12 272.878 474.394 274.741C466.827 278.35 459.26 279.747 453.789 280.096C452.392 280.213 451.228 280.213 450.064 280.213C449.016 280.213 448.084 280.096 447.27 280.096C446.571 279.98 445.989 279.98 445.523 279.863C445.174 279.863 444.941 279.747 444.941 279.747C444.941 279.747 445.174 279.747 445.523 279.747C445.989 279.747 446.571 279.747 447.27 279.863C448.084 279.863 449.016 279.863 450.064 279.863C451.111 279.863 452.392 279.863 453.672 279.631C459.028 279.281 466.595 277.768 474.045 274.159C477.77 272.413 481.147 270.317 483.941 268.105C486.735 265.893 489.179 263.798 491.508 262.285C493.719 260.771 495.815 259.84 497.328 259.374C498.027 259.141 498.609 259.025 499.075 259.025C499.54 258.909 499.657 258.909 499.657 258.909Z" fill="white"/>
<path d="M347.618 285.917C347.618 285.917 347.385 285.917 347.035 285.801C346.57 285.684 345.988 285.568 345.173 285.451C343.659 284.986 341.447 284.171 338.886 282.774C336.442 281.377 333.648 279.281 330.737 276.837C327.827 274.392 324.684 271.714 321.075 269.153C317.466 266.708 313.741 264.962 310.015 264.147C306.406 263.216 302.914 263.099 300.12 263.216C297.326 263.332 294.998 263.798 293.484 264.264C291.971 264.613 291.156 264.962 291.039 264.846C291.039 264.846 291.272 264.729 291.622 264.613C291.971 264.496 292.553 264.264 293.368 264.031C294.881 263.565 297.21 262.983 300.12 262.867C303.03 262.634 306.523 262.75 310.132 263.682C313.857 264.496 317.815 266.243 321.424 268.804C325.033 271.365 328.176 274.043 331.086 276.487C333.997 278.932 336.674 281.028 339.119 282.541C341.564 284.054 343.659 284.869 345.173 285.451C346.803 285.684 347.618 285.917 347.618 285.917Z" fill="white"/>
<path d="M347.85 175.904C347.85 175.904 347.152 176.137 345.871 176.603C345.289 176.835 344.474 177.068 343.543 177.301C342.612 177.534 341.564 177.883 340.4 178C339.236 178.232 337.955 178.465 336.558 178.698C335.161 178.931 333.648 179.047 332.134 179.164C328.991 179.397 325.499 179.397 321.89 179.047C318.281 178.698 314.905 178 311.762 177.301C310.248 176.835 308.851 176.486 307.454 176.021C306.174 175.555 304.893 175.089 303.845 174.624C302.681 174.158 301.75 173.692 300.935 173.343C300.12 172.994 299.305 172.528 298.723 172.179C297.559 171.48 296.977 171.131 296.977 171.131C296.977 171.131 297.675 171.364 298.839 171.946C299.422 172.295 300.12 172.644 301.051 172.994C301.866 173.343 302.914 173.809 303.962 174.274C305.009 174.74 306.29 175.206 307.571 175.555C308.851 176.021 310.365 176.37 311.878 176.835C314.905 177.534 318.281 178.232 321.89 178.582C325.499 178.931 328.875 178.931 332.018 178.698C333.531 178.582 335.045 178.465 336.442 178.232C337.839 178.116 339.119 177.883 340.283 177.65C341.448 177.418 342.495 177.185 343.427 176.952C344.358 176.719 345.173 176.603 345.755 176.37C347.152 176.021 347.85 175.788 347.85 175.904Z" fill="white"/>
<path d="M493.138 175.555C493.138 175.555 492.905 175.438 492.672 175.322C492.323 175.089 491.857 174.856 491.275 174.507C490.693 174.158 489.994 173.692 489.063 173.343C488.248 172.877 487.2 172.412 486.153 171.946C485.571 171.713 484.988 171.48 484.406 171.247C483.824 171.015 483.126 170.782 482.427 170.549C481.147 170.083 479.633 169.734 478.12 169.268C474.977 168.57 471.484 168.104 467.875 168.104C464.15 168.104 460.658 168.454 457.631 169.152C456.117 169.501 454.604 169.851 453.207 170.316C452.508 170.549 451.926 170.665 451.228 170.898C450.646 171.131 450.064 171.364 449.482 171.597C448.317 171.946 447.386 172.528 446.455 172.877C445.524 173.227 444.825 173.692 444.243 174.041C443.661 174.391 443.195 174.624 442.846 174.74C442.497 174.856 442.38 174.973 442.38 174.973C442.38 174.973 442.497 174.856 442.846 174.624C443.195 174.391 443.661 174.158 444.127 173.809C444.709 173.459 445.407 172.994 446.222 172.528C447.037 172.062 448.085 171.48 449.132 171.131C449.714 170.898 450.297 170.665 450.879 170.433C451.461 170.2 452.159 169.967 452.858 169.734C454.255 169.268 455.652 168.919 457.281 168.57C460.425 167.871 464.034 167.522 467.759 167.522C471.484 167.522 474.977 168.104 478.12 168.803C479.633 169.268 481.147 169.618 482.544 170.083C483.242 170.316 483.824 170.549 484.523 170.782C485.105 171.015 485.687 171.247 486.269 171.597C487.433 172.062 488.364 172.644 489.179 173.11C489.994 173.576 490.693 174.041 491.275 174.391C491.741 174.74 492.206 174.973 492.555 175.322C493.021 175.438 493.138 175.555 493.138 175.555Z" fill="white"/>
<path d="M421.891 96.5086C421.891 96.5086 421.658 96.7414 421.076 96.9743C420.494 97.3235 419.679 97.7892 418.631 98.2548C416.536 99.419 413.392 101.049 409.434 103.028C401.634 106.87 390.691 112.108 377.653 115.484C371.134 117.114 364.847 117.929 359.026 118.046C353.205 118.162 347.967 117.696 343.776 116.765C339.468 115.834 336.092 114.669 333.88 113.738C332.716 113.272 331.901 112.807 331.319 112.574C330.737 112.341 330.388 112.108 330.504 112.108C330.504 112.108 330.854 112.225 331.436 112.458C332.018 112.69 332.833 113.156 333.997 113.505C336.209 114.437 339.585 115.484 343.892 116.299C348.2 117.114 353.322 117.58 359.026 117.463C364.731 117.347 371.017 116.416 377.536 114.902C390.459 111.643 401.402 106.404 409.201 102.679C413.043 100.816 416.186 99.1862 418.515 98.1384C419.562 97.6728 420.377 97.2071 421.076 96.8578C421.658 96.625 421.891 96.5086 421.891 96.5086Z" fill="white"/>
<path d="M188.244 299.305L227.127 301.051L225.381 342.262L186.498 340.516L183.471 409.085L132.248 406.873L135.275 338.304L3.02701 332.483L3.14342 301.051L144.006 98.7205L196.859 101.049L188.244 299.305ZM54.3663 293.484L137.021 297.093L142.493 172.062L141.212 171.597L136.556 180.561L54.3663 293.484Z" fill="#A016A3"/>
<g opacity="0.4">
<path d="M188.244 299.305L227.127 301.051L225.381 342.262L186.498 340.516L183.471 409.085L132.248 406.873L135.275 338.304L3.02701 332.483L3.14342 301.051L144.006 98.7205L196.859 101.049L188.244 299.305ZM54.3663 293.484L137.021 297.093L142.493 172.062L141.212 171.597L136.556 180.561L54.3663 293.484Z" fill="black"/>
</g>
<path d="M220.724 300.818L259.607 302.564L257.861 343.776L218.978 342.029L215.951 410.598L164.728 408.386L167.755 339.817L35.5069 333.997L35.6233 302.564L176.486 100.234L229.339 102.562L220.724 300.818ZM86.8462 294.881L169.501 298.49L174.973 173.459L173.692 172.994L169.036 181.958L86.8462 294.881Z" fill="#A016A3"/>
<path d="M36.322 308.618C36.322 308.618 35.8563 308.851 35.0414 309.317C34.2265 309.782 33.0623 310.364 31.5489 311.063C28.5221 312.46 24.3312 314.322 19.6745 316.301C15.0179 318.281 10.7105 319.91 7.68372 321.075C6.17032 321.657 4.88975 322.122 3.95842 322.472C3.02709 322.821 2.56143 322.937 2.56143 322.937C2.56143 322.937 3.02709 322.704 3.842 322.355C4.77333 321.889 6.0539 321.424 7.45089 320.842C10.5941 319.561 14.7851 317.815 19.4417 315.836C23.9819 313.857 28.1729 312.111 31.3161 310.714C32.7131 310.131 33.9937 309.549 34.925 309.2C35.8563 308.734 36.322 308.502 36.322 308.618Z" fill="#A016A3"/>
<path d="M55.2977 273.693C55.2977 273.693 54.7157 274.043 53.5515 274.625C52.3873 275.207 50.7575 276.022 48.662 276.953C44.4711 278.816 38.7667 281.377 32.3638 284.054C25.961 286.732 20.1402 289.177 15.8328 290.806C13.7373 291.621 11.9911 292.32 10.8269 292.669C9.66279 293.135 8.96429 293.368 8.96429 293.251C8.96429 293.251 9.54637 292.902 10.7105 292.436C11.9911 291.854 13.6209 291.156 15.7164 290.341C20.0238 288.595 25.7282 286.15 32.131 283.472C38.5339 280.795 44.2383 278.35 48.5456 276.487C50.5247 275.672 52.2709 274.857 53.5515 274.392C54.5992 273.926 55.2977 273.693 55.2977 273.693Z" fill="#A016A3"/>
<path d="M78.4646 242.61C78.4646 242.61 77.8825 242.96 76.6019 243.542C75.4378 244.124 73.6915 244.939 71.4796 245.87C67.1723 247.733 61.1186 250.294 54.4829 252.971C47.8472 255.649 41.6772 258.094 37.2534 259.723C35.0415 260.538 33.2953 261.237 32.0147 261.586C30.7341 262.052 30.0356 262.285 30.0356 262.168C30.0356 262.168 30.7341 261.819 31.8983 261.353C33.1789 260.771 34.9251 260.073 37.137 259.258C41.5608 257.512 47.6144 255.067 54.2501 252.389C60.8858 249.712 66.9394 247.267 71.3632 245.404C73.4587 244.589 75.2049 243.774 76.6019 243.309C77.7661 242.843 78.4646 242.61 78.4646 242.61Z" fill="#A016A3"/>
<path d="M171.131 278.466C171.131 278.466 170.665 278.699 169.851 279.165C169.036 279.514 167.755 280.096 166.358 280.795C163.331 282.192 159.14 283.938 154.484 285.801C149.827 287.663 145.52 289.293 142.493 290.457C140.979 291.039 139.699 291.505 138.768 291.738C137.836 291.971 137.371 292.203 137.371 292.087C137.371 292.087 137.836 291.854 138.651 291.505C139.583 291.156 140.863 290.574 142.26 289.992C145.403 288.711 149.594 287.081 154.251 285.218C158.791 283.356 162.982 281.61 166.125 280.329C167.522 279.747 168.803 279.281 169.734 278.816C170.549 278.699 171.015 278.466 171.131 278.466Z" fill="#A016A3"/>
<path d="M167.289 342.495C167.289 342.495 166.824 342.728 166.009 343.193C165.194 343.543 164.03 344.125 162.633 344.823C159.722 346.22 155.648 347.967 151.108 349.829C146.567 351.692 142.493 353.322 139.466 354.486C137.953 355.068 136.789 355.534 135.857 355.766C135.042 355.999 134.577 356.232 134.46 356.116C134.46 356.116 134.926 355.883 135.741 355.534C136.672 355.184 137.836 354.602 139.233 354.02C142.376 352.74 146.335 351.11 150.875 349.247C155.299 347.384 159.373 345.638 162.4 344.358C163.797 343.776 164.961 343.31 165.892 342.844C166.824 342.611 167.289 342.495 167.289 342.495Z" fill="#A016A3"/>
<path d="M166.824 364.847C166.824 364.847 166.358 365.08 165.543 365.545C164.728 365.895 163.564 366.477 162.167 367.175C159.257 368.572 155.182 370.318 150.642 372.181C146.102 374.044 142.027 375.673 139.001 376.838C137.487 377.42 136.323 377.885 135.392 378.118C134.577 378.351 134.111 378.584 133.995 378.467C133.995 378.467 134.46 378.235 135.275 377.885C136.207 377.536 137.371 376.954 138.768 376.372C141.911 375.091 145.869 373.462 150.409 371.599C154.833 369.736 158.908 367.99 161.934 366.709C163.331 366.127 164.496 365.662 165.427 365.196C166.242 365.08 166.707 364.847 166.824 364.847Z" fill="#A016A3"/>
<path d="M166.242 387.315C166.242 387.315 165.776 387.548 164.961 388.014C164.146 388.363 162.982 388.945 161.585 389.643C158.675 391.04 154.6 392.787 150.06 394.649C145.52 396.512 141.445 398.142 138.418 399.306C136.905 399.888 135.741 400.354 134.81 400.586C133.995 400.819 133.529 401.052 133.413 400.936C133.413 400.936 133.878 400.703 134.693 400.354C135.624 400.004 136.789 399.422 138.186 398.84C141.329 397.56 145.287 395.93 149.827 394.067C154.251 392.205 158.326 390.458 161.352 389.178C162.749 388.596 163.913 388.13 164.845 387.664C165.776 387.431 166.242 387.315 166.242 387.315Z" fill="#A016A3"/>
<path d="M171.713 254.834C171.713 254.834 171.248 255.067 170.433 255.532C169.618 255.882 168.337 256.464 166.94 257.162C163.913 258.559 159.722 260.306 155.066 262.168C150.409 264.031 146.102 265.661 143.075 266.825C141.562 267.407 140.281 267.873 139.35 268.105C138.418 268.338 137.953 268.571 137.953 268.455C137.953 268.455 138.418 268.222 139.233 267.873C140.165 267.523 141.445 266.941 142.842 266.359C145.985 265.079 150.176 263.449 154.833 261.586C159.373 259.723 163.564 257.977 166.707 256.697C168.104 256.115 169.385 255.649 170.316 255.183C171.131 254.95 171.713 254.834 171.713 254.834Z" fill="#A016A3"/>
<path d="M172.295 231.202C172.295 231.202 171.83 231.434 171.015 231.9C170.2 232.249 168.919 232.831 167.522 233.53C164.495 234.927 160.304 236.673 155.648 238.536C150.991 240.398 146.684 242.028 143.657 243.192C142.144 243.774 140.863 244.24 139.932 244.473C139 244.706 138.535 244.939 138.535 244.822C138.535 244.822 139 244.589 139.815 244.24C140.747 243.891 142.027 243.309 143.424 242.727C146.567 241.446 150.758 239.816 155.415 237.954C159.955 236.091 164.146 234.345 167.289 233.064C168.686 232.482 169.967 232.017 170.898 231.551C171.83 231.318 172.295 231.085 172.295 231.202Z" fill="#A016A3"/>
<path d="M172.878 207.453C172.878 207.453 172.412 207.686 171.714 208.151C170.899 208.501 169.735 209.083 168.338 209.781C165.427 211.062 161.469 212.808 157.045 214.671C152.621 216.417 148.547 218.047 145.52 219.094C144.007 219.676 142.843 220.026 142.028 220.259C141.213 220.491 140.747 220.608 140.747 220.608C140.747 220.608 141.213 220.375 142.028 220.026C142.959 219.676 144.123 219.211 145.52 218.629C148.547 217.465 152.505 215.835 156.929 214.088C161.353 212.342 165.194 210.712 168.338 209.432C169.735 208.85 170.899 208.384 171.83 208.035C172.412 207.569 172.878 207.453 172.878 207.453Z" fill="#A016A3"/>
<path d="M175.555 185.334C175.555 185.45 172.994 186.614 169.734 187.779C166.475 188.943 163.797 189.874 163.681 189.641C163.681 189.525 166.242 188.361 169.501 187.196C172.761 186.032 175.555 185.217 175.555 185.334Z" fill="#A016A3"/>
<path d="M101.515 210.363C101.515 210.363 100.933 210.712 99.652 211.295C98.4878 211.877 96.7416 212.691 94.5297 213.623C90.2223 215.485 84.1687 218.047 77.533 220.724C70.8973 223.402 64.7273 225.846 60.3035 227.476C58.0916 228.291 56.3454 228.99 55.0648 229.339C53.7842 229.805 53.0857 230.037 53.0857 229.921C53.0857 229.921 53.7842 229.572 54.9484 229.106C56.229 228.524 57.9752 227.826 60.1871 227.011C64.6109 225.264 70.6645 222.82 77.3002 220.142C83.9359 217.465 89.9895 215.02 94.4133 213.157C96.5088 212.342 98.255 211.527 99.652 211.062C100.816 210.596 101.515 210.363 101.515 210.363Z" fill="#A016A3"/>
<path d="M124.565 178.116C124.565 178.116 123.983 178.465 122.703 179.047C121.539 179.629 119.792 180.444 117.58 181.376C113.273 183.238 107.219 185.799 100.584 188.477C93.948 191.155 87.7779 193.599 83.3542 195.229C81.1423 196.044 79.396 196.743 78.1154 197.092C76.8349 197.557 76.1364 197.79 76.1364 197.674C76.1364 197.674 76.8349 197.325 77.999 196.859C79.2796 196.277 81.0258 195.578 83.2377 194.763C87.6615 193.017 93.7151 190.573 100.351 187.895C106.987 185.217 113.04 182.773 117.464 180.91C119.559 180.095 121.306 179.28 122.703 178.815C123.867 178.349 124.565 178.116 124.565 178.116Z" fill="#A016A3"/>
<path d="M145.986 145.869C145.986 145.869 145.404 146.218 144.123 146.8C142.959 147.382 141.213 148.197 139.001 149.129C134.693 150.991 128.64 153.552 122.004 156.23C115.368 158.907 109.198 161.352 104.775 162.982C102.563 163.797 100.816 164.495 99.5358 164.845C98.2553 165.31 97.5568 165.543 97.5568 165.427C97.5568 165.427 98.2553 165.077 99.4194 164.612C100.7 164.03 102.446 163.331 104.658 162.516C109.082 160.77 115.136 158.325 121.771 155.648C128.407 152.97 134.461 150.526 138.884 148.663C140.98 147.848 142.726 147.033 144.123 146.567C145.287 146.102 145.986 145.869 145.986 145.869Z" fill="#A016A3"/>
<path d="M168.105 114.902C168.105 114.902 167.523 115.252 166.242 115.834C165.078 116.416 163.332 117.231 161.12 118.162C156.812 120.025 150.759 122.586 144.123 125.263C137.487 127.941 131.317 130.386 126.894 132.015C124.682 132.83 122.935 133.529 121.655 133.878C120.374 134.344 119.676 134.577 119.676 134.46C119.676 134.46 120.374 134.111 121.538 133.645C122.819 133.063 124.565 132.365 126.777 131.55C131.201 129.804 137.255 127.359 143.89 124.681C150.526 122.004 156.58 119.559 161.003 117.696C163.099 116.881 164.845 116.066 166.242 115.601C167.406 115.135 168.105 114.902 168.105 114.902Z" fill="#A016A3"/>
<path d="M227.127 162.283C227.127 162.283 226.894 162.516 226.429 163.098C225.963 163.564 225.264 164.263 224.333 165.194C222.47 166.824 219.444 169.152 215.253 171.015C211.062 172.877 205.707 174.391 199.653 174.507C196.626 174.624 193.483 174.274 190.223 173.459C186.964 172.644 183.82 171.364 180.677 169.851C174.391 166.824 168.803 163.215 163.448 160.654C158.093 158.093 152.737 156.812 148.197 156.696C143.657 156.579 140.048 157.51 137.836 158.675C136.672 159.257 135.857 159.722 135.275 160.072C134.693 160.421 134.46 160.654 134.46 160.654C134.46 160.654 134.693 160.421 135.275 159.955C135.741 159.49 136.672 159.024 137.72 158.442C139.932 157.278 143.657 156.113 148.197 156.23C152.737 156.346 158.209 157.627 163.681 160.188C169.152 162.633 174.74 166.242 181.026 169.268C184.17 170.782 187.313 172.062 190.456 172.761C193.599 173.576 196.743 173.925 199.769 173.809C205.707 173.692 211.062 172.295 215.136 170.433C219.211 168.57 222.238 166.474 224.217 164.845C225.264 164.03 225.963 163.331 226.429 162.866C226.778 162.516 227.127 162.283 227.127 162.283Z" fill="white"/>
<path d="M210.829 104.774C210.829 104.774 210.363 105.123 209.315 105.589C208.384 106.171 206.871 106.753 205.125 107.568C203.262 108.383 201.05 109.198 198.605 109.896C196.161 110.595 193.367 111.293 190.34 111.759C187.313 112.225 184.519 112.458 181.958 112.574C179.397 112.69 176.952 112.574 175.089 112.458C173.11 112.341 171.597 112.108 170.433 111.875C169.385 111.643 168.803 111.526 168.803 111.526C168.803 111.526 169.385 111.526 170.549 111.643C171.597 111.759 173.227 111.875 175.206 111.992C177.185 112.108 179.513 112.108 182.074 111.992C184.635 111.875 187.546 111.643 190.456 111.177C193.367 110.711 196.161 110.013 198.605 109.314C201.05 108.616 203.262 107.801 205.125 107.102C206.987 106.404 208.384 105.822 209.432 105.356C210.247 104.891 210.829 104.658 210.829 104.774Z" fill="white"/>
<path d="M128.29 233.996C128.29 233.996 127.941 233.646 127.243 232.831C126.544 232.017 125.613 230.852 124.449 229.572C122.12 226.778 118.744 223.169 114.67 219.327C112.691 217.465 110.595 215.835 108.616 214.671C106.521 213.506 104.542 212.692 102.795 212.459C99.303 211.76 96.9747 212.575 96.9747 212.459C96.9747 212.459 97.0911 212.342 97.3239 212.342C97.5567 212.226 98.0224 212.109 98.4881 212.109C99.5358 211.993 101.049 211.877 102.795 212.109C104.658 212.459 106.754 213.157 108.849 214.321C110.945 215.485 113.04 217.115 115.136 219.094C119.21 222.82 122.47 226.661 124.798 229.455C125.962 230.852 126.777 232.017 127.359 232.831C127.941 233.53 128.29 233.996 128.29 233.996Z" fill="white"/>
<path d="M221.073 269.153C221.073 269.153 220.957 269.27 220.608 269.502C220.259 269.735 219.793 270.084 219.211 270.434C218.047 271.132 216.184 272.18 213.739 272.995C208.966 274.857 201.748 276.138 194.065 274.508C186.382 272.878 180.212 268.92 176.603 265.311C174.74 263.565 173.459 261.935 172.645 260.771C172.179 260.189 171.946 259.723 171.713 259.374C171.48 259.025 171.364 258.909 171.48 258.909C171.48 258.909 171.946 259.491 172.877 260.655C173.809 261.819 175.089 263.332 176.952 264.962C180.677 268.338 186.731 272.296 194.298 273.81C201.865 275.323 208.966 274.159 213.739 272.413C216.068 271.598 217.93 270.667 219.211 269.968C220.375 269.502 221.073 269.153 221.073 269.153Z" fill="white"/>
<path d="M255.067 342.961C255.067 342.961 254.951 342.728 254.718 342.379C254.485 342.029 254.136 341.447 253.786 340.749C253.088 339.352 251.691 337.256 249.828 334.812C249.363 334.229 248.781 333.647 248.198 332.949C247.966 332.6 247.616 332.25 247.384 331.901C247.034 331.552 246.685 331.319 246.452 330.97C245.754 330.271 245.055 329.573 244.357 328.874C243.542 328.176 242.727 327.594 241.912 326.895C238.42 324.218 234.229 321.424 229.106 319.328C223.984 317.233 218.047 315.603 211.644 315.254C205.125 314.904 198.14 315.836 191.388 318.513C184.635 321.191 178 325.265 171.015 329.107C167.522 331.086 163.913 332.949 160.072 334.579C156.23 336.092 152.156 337.373 147.965 337.722C143.774 338.188 139.466 337.838 135.392 336.907C131.317 336.092 127.475 334.579 123.867 332.949C116.532 329.573 110.129 325.265 104.192 320.958C98.255 316.651 92.5507 312.576 86.9627 309.317C81.3748 306.057 75.7868 303.496 70.4317 302.215C65.0766 300.935 59.9543 300.702 55.6469 301.284C51.2231 301.749 47.6142 303.03 44.9366 304.427C42.1427 305.824 40.28 307.454 39.1159 308.385C38.5338 308.967 38.0681 309.433 37.8353 309.666C37.486 310.015 37.3696 310.131 37.3696 310.131C37.3696 310.131 37.486 310.015 37.8353 309.666C38.1845 309.317 38.5338 308.851 39.1159 308.269C40.3964 307.221 42.1427 305.591 44.9366 304.078C47.7306 302.681 51.3395 301.4 55.7633 300.818C60.1871 300.236 65.3094 300.469 70.6645 301.75C76.1361 303.03 81.724 305.591 87.4284 308.851C93.1328 312.11 98.7207 316.185 104.774 320.492C110.712 324.683 117.114 329.107 124.332 332.367C127.941 333.997 131.783 335.394 135.741 336.325C139.699 337.14 143.89 337.606 148.081 337.023C152.272 336.558 156.23 335.394 160.072 333.88C163.913 332.367 167.522 330.388 170.898 328.525C177.883 324.683 184.403 320.609 191.271 317.931C193.017 317.349 194.764 316.651 196.51 316.301C197.325 316.069 198.256 315.836 199.071 315.603C200.002 315.487 200.817 315.37 201.632 315.137C205.125 314.555 208.501 314.555 211.76 314.672C218.28 315.021 224.333 316.651 229.456 318.863C234.578 321.075 238.885 323.868 242.261 326.546C243.076 327.245 243.891 327.943 244.706 328.642C245.404 329.34 246.103 330.039 246.801 330.737C247.151 331.086 247.5 331.436 247.733 331.668C247.966 332.018 248.315 332.367 248.548 332.716C249.13 333.415 249.595 333.997 250.061 334.579C251.924 337.023 253.204 339.119 254.019 340.516C254.368 341.214 254.718 341.797 254.951 342.146C254.951 342.728 255.067 342.961 255.067 342.961Z" fill="white"/>
<path d="M219.793 391.506C219.793 391.506 219.56 391.622 219.211 391.622C218.745 391.739 218.163 391.855 217.465 391.972C216.766 392.088 215.835 392.321 214.671 392.321C213.623 392.437 212.342 392.554 211.062 392.67C210.363 392.67 209.665 392.787 208.966 392.787C208.268 392.787 207.453 392.787 206.638 392.787C205.008 392.787 203.378 392.67 201.516 392.437C197.907 392.088 194.065 391.39 189.99 390.225C186.032 389.061 182.307 387.548 179.047 385.918C177.418 385.103 175.904 384.288 174.624 383.473C173.925 383.008 173.227 382.658 172.645 382.193C172.062 381.727 171.48 381.378 170.898 380.912C169.734 380.214 168.803 379.399 167.988 378.7C167.173 378.002 166.475 377.42 165.892 376.838C165.427 376.372 164.961 375.906 164.612 375.673C164.379 375.441 164.146 375.208 164.146 375.208C164.146 375.208 164.379 375.324 164.612 375.557C164.961 375.906 165.427 376.256 166.009 376.721C166.591 377.187 167.289 377.769 168.104 378.467C168.919 379.05 169.967 379.864 171.015 380.563C171.597 380.912 172.179 381.378 172.761 381.727C173.343 382.193 174.042 382.542 174.74 382.891C176.137 383.706 177.65 384.521 179.164 385.336C182.423 386.849 186.032 388.363 189.99 389.527C193.949 390.691 197.79 391.39 201.399 391.739C203.145 391.855 204.892 392.088 206.405 392.088C207.22 392.088 207.919 392.204 208.733 392.088C209.432 392.088 210.13 392.088 210.829 392.088C212.226 392.088 213.39 391.972 214.438 391.855C215.486 391.739 216.417 391.622 217.232 391.506C217.93 391.39 218.512 391.39 218.978 391.273C219.56 391.506 219.793 391.506 219.793 391.506Z" fill="white"/>
<path d="M693.722 299.77L732.488 295.929L736.563 337.023L697.797 340.865L704.432 409.085L653.442 414.091L646.806 345.871L515.14 358.793L510.833 327.71L621.777 107.568L674.513 102.446L693.722 299.77ZM560.426 312.809L642.848 304.776L630.625 180.212L629.344 179.862L625.968 189.292L560.426 312.809Z" fill="#A016A3"/>
<g opacity="0.4">
<path d="M693.722 299.77L732.488 295.929L736.563 337.023L697.797 340.865L704.432 409.085L653.442 414.091L646.806 345.871L515.14 358.793L510.833 327.71L621.777 107.568L674.513 102.446L693.722 299.77ZM560.426 312.809L642.848 304.776L630.625 180.212L629.344 179.862L625.968 189.292L560.426 312.809Z" fill="black"/>
</g>
<path d="M726.202 296.627L764.969 292.785L769.043 333.88L730.277 337.722L736.913 405.942L685.923 410.947L679.287 342.728L547.621 355.65L543.313 324.567L654.257 104.308L706.994 99.1862L726.202 296.627ZM592.79 309.666L675.212 301.633L662.989 177.068L661.708 176.719L658.332 186.149L592.79 309.666Z" fill="#A016A3"/>
<path d="M544.71 330.271C544.71 330.271 544.361 330.621 543.546 331.203C542.731 331.785 541.683 332.483 540.286 333.415C537.492 335.277 533.651 337.722 529.343 340.283C525.036 342.844 521.078 345.173 518.167 346.802C516.77 347.617 515.49 348.199 514.675 348.665C513.86 349.131 513.394 349.247 513.394 349.247C513.394 349.247 513.744 348.898 514.559 348.432C515.49 347.85 516.538 347.268 517.935 346.453C520.845 344.707 524.803 342.379 529.11 339.817C533.418 337.256 537.26 334.928 540.17 333.065C541.451 332.25 542.615 331.552 543.546 331.086C544.245 330.504 544.71 330.271 544.71 330.271Z" fill="#A016A3"/>
<path d="M558.564 293.135C558.564 293.135 557.981 293.6 556.934 294.299C555.886 294.997 554.373 296.045 552.394 297.209C548.552 299.654 543.197 303.03 537.26 306.523C531.322 310.131 525.851 313.275 521.893 315.487C519.914 316.651 518.284 317.466 517.12 318.048C515.955 318.63 515.373 318.979 515.373 318.863C515.373 318.863 515.955 318.397 517.003 317.815C518.167 317.116 519.797 316.185 521.66 315.021C525.618 312.576 530.973 309.433 536.91 305.824C542.847 302.215 548.203 299.072 552.161 296.627C554.023 295.463 555.653 294.532 556.817 293.833C557.865 293.484 558.564 293.135 558.564 293.135Z" fill="#A016A3"/>
<path d="M577.073 259.141C577.073 259.141 576.491 259.607 575.444 260.306C574.279 261.004 572.766 262.052 570.671 263.332C566.596 265.777 561.008 269.153 554.838 272.762C548.552 276.371 542.847 279.631 538.773 281.842C536.677 283.007 535.047 283.821 533.883 284.52C532.719 285.102 532.021 285.451 532.021 285.451C532.021 285.451 532.603 284.986 533.767 284.404C535.047 283.705 536.677 282.774 538.656 281.61C542.847 279.165 548.435 275.905 554.605 272.413C560.775 268.804 566.363 265.544 570.554 263.099C572.533 261.935 574.163 261.004 575.444 260.306C576.375 259.374 577.073 259.025 577.073 259.141Z" fill="#A016A3"/>
<path d="M673.815 281.61C673.815 281.61 673.466 281.959 672.651 282.424C671.836 282.89 670.788 283.705 669.391 284.52C666.597 286.266 662.755 288.711 658.331 291.156C654.024 293.717 649.95 295.929 647.039 297.442C645.526 298.257 644.362 298.839 643.547 299.188C642.732 299.654 642.266 299.77 642.266 299.77C642.266 299.77 642.732 299.421 643.43 298.956C644.362 298.373 645.526 297.791 646.806 296.976C649.833 295.23 653.675 293.018 657.982 290.574C662.29 288.012 666.131 285.801 669.042 284.054C670.439 283.239 671.486 282.657 672.418 282.075C673.349 281.842 673.815 281.61 673.815 281.61Z" fill="#A016A3"/>
<path d="M679.17 345.522C679.17 345.522 678.821 345.871 678.006 346.337C677.307 346.802 676.143 347.617 674.862 348.432C672.185 350.178 668.46 352.507 664.152 355.068C659.961 357.629 656.12 359.724 653.209 361.238C651.812 362.053 650.648 362.635 649.833 362.984C649.018 363.333 648.553 363.566 648.553 363.566C648.553 363.566 648.902 363.217 649.717 362.751C650.648 362.169 651.696 361.587 652.976 360.772C655.887 359.026 659.612 356.814 663.803 354.369C667.994 351.925 671.719 349.596 674.513 347.85C675.794 347.035 676.958 346.453 677.773 345.871C678.704 345.638 679.17 345.405 679.17 345.522Z" fill="#A016A3"/>
<path d="M681.731 367.757C681.731 367.757 681.382 368.106 680.567 368.572C679.868 369.038 678.704 369.853 677.424 370.668C674.746 372.414 671.021 374.742 666.713 377.303C662.522 379.864 658.681 381.96 655.77 383.473C654.373 384.288 653.209 384.87 652.394 385.22C651.579 385.569 651.114 385.802 651.114 385.802C651.114 385.802 651.463 385.452 652.278 384.987C653.209 384.405 654.257 383.823 655.537 383.008C658.448 381.261 662.173 379.05 666.364 376.605C670.555 374.16 674.28 371.832 677.074 370.086C678.355 369.271 679.519 368.689 680.334 368.106C681.265 367.99 681.731 367.757 681.731 367.757Z" fill="#A016A3"/>
<path d="M684.408 389.993C684.408 389.993 684.059 390.342 683.244 390.808C682.545 391.273 681.381 392.088 680.101 392.903C677.423 394.649 673.698 396.978 669.39 399.539C665.199 402.1 661.358 404.195 658.447 405.709C657.05 406.524 655.886 407.106 655.071 407.455C654.256 407.804 653.791 408.037 653.791 408.037C653.791 408.037 654.14 407.688 654.955 407.222C655.886 406.64 656.934 406.058 658.215 405.243C661.125 403.497 664.85 401.285 669.041 398.84C673.232 396.395 676.957 394.067 679.751 392.321C681.032 391.506 682.196 390.924 683.011 390.342C683.942 390.225 684.408 389.993 684.408 389.993Z" fill="#A016A3"/>
<path d="M671.138 258.094C671.138 258.094 670.789 258.443 669.974 258.909C669.159 259.374 668.111 260.189 666.714 261.004C663.92 262.75 660.078 265.195 655.654 267.64C651.347 270.201 647.273 272.413 644.362 273.926C642.849 274.741 641.685 275.323 640.87 275.672C640.055 276.138 639.589 276.254 639.589 276.254C639.589 276.254 640.055 275.905 640.753 275.44C641.685 274.857 642.849 274.275 644.129 273.46C647.156 271.714 650.998 269.502 655.305 267.058C659.613 264.496 663.454 262.285 666.365 260.538C667.762 259.723 668.809 259.141 669.741 258.559C670.672 258.326 671.138 258.094 671.138 258.094Z" fill="#A016A3"/>
<path d="M668.46 234.578C668.46 234.578 668.11 234.927 667.296 235.393C666.481 235.858 665.433 236.673 664.036 237.488C661.242 239.234 657.4 241.679 652.976 244.124C648.669 246.685 644.594 248.897 641.684 250.41C640.171 251.225 639.006 251.807 638.192 252.156C637.377 252.622 636.911 252.738 636.911 252.738C636.911 252.738 637.377 252.389 638.075 251.924C639.006 251.341 640.171 250.759 641.451 249.945C644.478 248.198 648.32 245.986 652.627 243.542C656.934 240.98 660.776 238.769 663.687 237.022C665.084 236.207 666.131 235.625 667.063 235.043C667.878 234.81 668.343 234.578 668.46 234.578Z" fill="#A016A3"/>
<path d="M665.665 211.062C665.665 211.062 665.316 211.411 664.618 211.877C663.919 212.342 662.871 213.041 661.474 213.856C658.797 215.485 655.072 217.814 650.997 220.259C646.806 222.703 643.081 224.799 640.287 226.196C638.89 226.894 637.726 227.476 637.027 227.942C636.212 228.291 635.747 228.524 635.747 228.524C635.747 228.524 636.096 228.175 636.911 227.826C637.726 227.36 638.89 226.661 640.17 225.963C642.964 224.333 646.69 222.238 650.764 219.909C654.839 217.465 658.564 215.369 661.358 213.739C662.639 213.041 663.686 212.342 664.618 211.877C665.2 211.178 665.665 210.945 665.665 211.062Z" fill="#A016A3"/>
<path d="M665.201 188.71C665.317 188.826 662.872 190.34 659.729 191.969C656.702 193.599 654.141 194.88 654.025 194.763C653.908 194.647 656.353 193.134 659.496 191.504C662.523 189.874 665.084 188.593 665.201 188.71Z" fill="#A016A3"/>
<path d="M595.467 223.984C595.467 223.984 594.885 224.449 593.837 225.148C592.673 225.846 591.159 226.894 589.064 228.175C584.989 230.62 579.401 233.996 573.231 237.604C566.945 241.213 561.24 244.473 557.166 246.685C555.07 247.849 553.441 248.664 552.276 249.362C551.112 249.945 550.414 250.294 550.414 250.294C550.414 250.294 550.996 249.828 552.16 249.246C553.441 248.548 555.07 247.616 557.049 246.452C561.24 244.007 566.828 240.748 572.998 237.255C579.168 233.646 584.756 230.387 588.947 227.942C590.926 226.778 592.556 225.846 593.837 225.148C594.768 224.217 595.35 223.867 595.467 223.984Z" fill="#A016A3"/>
<path d="M613.744 188.826C613.744 188.826 613.162 189.292 612.115 189.99C610.95 190.689 609.437 191.737 607.342 193.017C603.267 195.462 597.679 198.838 591.509 202.447C585.223 206.056 579.518 209.315 575.444 211.527C573.348 212.691 571.718 213.506 570.554 214.205C569.39 214.787 568.692 215.136 568.692 215.136C568.692 215.136 569.274 214.671 570.438 214.088C571.718 213.39 573.348 212.459 575.327 211.295C579.518 208.85 585.106 205.59 591.276 202.098C597.446 198.489 603.034 195.229 607.225 192.784C609.204 191.62 610.834 190.689 612.115 189.99C613.046 189.059 613.744 188.71 613.744 188.826Z" fill="#A016A3"/>
<path d="M630.391 153.902C630.391 153.902 629.809 154.367 628.761 155.066C627.597 155.764 626.084 156.812 623.988 158.093C619.914 160.537 614.326 163.913 608.156 167.522C601.869 171.131 596.165 174.391 592.091 176.603C589.995 177.767 588.365 178.582 587.201 179.28C586.037 179.862 585.338 180.212 585.338 180.212C585.338 180.212 585.92 179.746 587.085 179.164C588.365 178.465 589.995 177.534 591.974 176.37C596.165 173.925 601.753 170.665 607.923 167.173C614.093 163.564 619.681 160.304 623.872 157.86C625.851 156.696 627.481 155.764 628.761 155.066C629.693 154.251 630.275 153.902 630.391 153.902Z" fill="#A016A3"/>
<path d="M647.971 120.025C647.971 120.025 647.389 120.49 646.341 121.189C645.177 121.887 643.664 122.935 641.568 124.216C637.494 126.66 631.906 130.036 625.736 133.645C619.449 137.254 613.745 140.514 609.67 142.726C607.575 143.89 605.945 144.705 604.781 145.403C603.617 145.985 602.918 146.335 602.918 146.335C602.918 146.335 603.5 145.869 604.664 145.287C605.945 144.588 607.575 143.657 609.554 142.493C613.745 140.048 619.333 136.788 625.503 133.296C631.673 129.687 637.261 126.427 641.452 123.983C643.431 122.819 645.061 121.887 646.341 121.189C647.273 120.374 647.971 120.025 647.971 120.025Z" fill="#A016A3"/>
<path d="M712.931 158.675C712.931 158.675 712.698 159.024 712.349 159.49C711.999 160.072 711.417 160.887 710.602 161.818C708.972 163.797 706.295 166.358 702.453 168.919C698.611 171.364 693.489 173.576 687.552 174.624C684.525 175.089 681.382 175.206 678.122 174.856C674.863 174.507 671.487 173.692 668.227 172.644C661.591 170.549 655.538 167.755 649.833 166.009C644.129 164.263 638.657 163.68 634.234 164.263C629.693 164.728 626.317 166.242 624.222 167.639C623.174 168.337 622.359 168.919 621.894 169.385C621.428 169.851 621.079 170.083 621.079 170.083C621.079 170.083 621.311 169.851 621.777 169.385C622.243 168.919 622.941 168.221 623.989 167.522C626.084 166.009 629.577 164.495 634.117 163.913C638.657 163.331 644.245 163.797 649.95 165.543C655.77 167.289 661.824 169.967 668.343 172.179C671.603 173.227 674.863 174.041 678.122 174.391C681.382 174.74 684.525 174.624 687.436 174.158C693.373 173.227 698.379 171.015 702.22 168.686C706.062 166.242 708.74 163.68 710.369 161.818C711.184 160.887 711.883 160.072 712.232 159.606C712.698 158.907 712.931 158.675 712.931 158.675Z" fill="white"/>
<path d="M688.833 103.959C688.833 103.959 688.367 104.425 687.436 105.007C686.505 105.705 685.224 106.52 683.478 107.568C681.848 108.616 679.753 109.664 677.308 110.828C674.98 111.875 672.302 112.923 669.392 113.855C666.481 114.786 663.687 115.368 661.126 115.834C658.565 116.299 656.237 116.532 654.258 116.649C652.278 116.765 650.649 116.765 649.601 116.765C648.553 116.765 647.855 116.649 647.855 116.649C647.855 116.649 648.437 116.532 649.601 116.532C650.649 116.532 652.278 116.416 654.258 116.183C656.237 116.066 658.565 115.717 661.01 115.252C663.571 114.786 666.365 114.087 669.159 113.272C671.953 112.341 674.63 111.293 677.075 110.246C679.403 109.198 681.499 108.15 683.245 107.102C684.991 106.171 686.272 105.356 687.203 104.774C688.251 104.192 688.833 103.959 688.833 103.959Z" fill="white"/>
<path d="M625.154 243.542C625.154 243.542 624.688 243.192 623.989 242.494C623.175 241.795 622.127 240.748 620.846 239.584C618.169 237.255 614.327 233.996 609.787 230.852C607.575 229.339 605.247 227.942 603.035 227.011C600.823 226.079 598.727 225.73 596.981 225.614C593.372 225.381 591.277 226.545 591.277 226.429C591.277 226.429 591.393 226.312 591.626 226.196C591.859 226.079 592.208 225.963 592.674 225.73C593.605 225.381 595.118 225.148 596.981 225.148C598.844 225.148 601.056 225.614 603.267 226.429C605.479 227.36 607.808 228.64 610.136 230.27C614.676 233.413 618.518 236.673 621.195 239.118C622.476 240.398 623.524 241.446 624.222 242.145C624.804 243.192 625.27 243.542 625.154 243.542Z" fill="white"/>
<path d="M722.128 265.311C722.128 265.311 722.011 265.428 721.778 265.777C721.546 266.01 721.08 266.359 720.498 266.825C719.45 267.756 717.704 268.92 715.492 270.201C711.068 272.646 704.083 274.974 696.167 274.508C688.251 274.043 681.615 270.899 677.54 267.873C675.445 266.359 673.931 264.962 673 263.914C672.534 263.449 672.185 262.983 671.952 262.75C671.72 262.517 671.603 262.285 671.603 262.285C671.603 262.285 672.185 262.867 673.233 263.798C674.281 264.729 675.794 266.126 677.89 267.523C681.964 270.434 688.6 273.46 696.283 273.926C703.967 274.392 710.835 272.18 715.375 269.852C717.587 268.687 719.334 267.523 720.498 266.708C721.429 265.777 722.011 265.311 722.128 265.311Z" fill="white"/>
<path d="M766.015 333.531C766.015 333.531 765.899 333.415 765.666 333.065C765.433 332.716 764.968 332.25 764.502 331.552C763.571 330.271 761.941 328.409 759.729 326.313C759.147 325.848 758.565 325.265 757.866 324.683C757.517 324.451 757.168 324.101 756.935 323.752C756.586 323.519 756.236 323.17 755.771 322.937C754.956 322.355 754.257 321.773 753.443 321.191C752.628 320.609 751.696 320.143 750.765 319.561C746.923 317.349 742.383 315.254 737.028 313.857C731.673 312.46 725.619 311.761 719.1 312.343C712.581 312.925 705.828 314.904 699.426 318.397C693.023 322.006 687.086 326.895 680.799 331.785C677.656 334.229 674.28 336.558 670.787 338.653C667.178 340.749 663.337 342.495 659.146 343.543C654.955 344.59 650.764 344.823 646.573 344.59C642.382 344.358 638.424 343.426 634.582 342.262C626.899 340.05 619.914 336.558 613.394 333.182C606.875 329.806 600.705 326.546 594.651 324.101C588.598 321.657 582.777 319.91 577.306 319.445C571.834 318.979 566.712 319.445 562.521 320.609C558.213 321.657 554.837 323.403 552.276 325.149C549.715 326.895 548.085 328.758 547.037 329.922C546.572 330.504 546.223 331.086 545.873 331.436C545.64 331.785 545.524 331.901 545.524 331.901C545.524 331.901 545.64 331.668 545.873 331.319C546.106 330.97 546.455 330.504 546.921 329.806C547.969 328.525 549.482 326.662 552.16 324.916C554.721 323.054 558.097 321.307 562.404 320.143C566.712 318.979 571.718 318.397 577.306 318.979C582.893 319.445 588.831 321.191 594.884 323.636C600.938 326.08 607.108 329.34 613.627 332.716C620.146 336.092 627.015 339.468 634.699 341.68C638.54 342.844 642.498 343.659 646.573 343.892C650.647 344.125 654.838 344.008 658.913 342.844C662.988 341.796 666.829 340.05 670.322 338.071C673.814 335.976 677.19 333.647 680.333 331.203C686.62 326.313 692.674 321.424 699.076 317.815C700.706 317 702.336 316.069 703.966 315.37C704.781 315.021 705.596 314.672 706.411 314.322C707.225 314.09 708.04 313.74 708.972 313.507C712.348 312.46 715.724 311.994 718.983 311.645C725.503 311.063 731.673 311.878 737.028 313.275C742.383 314.672 747.04 316.884 750.765 319.095C751.696 319.678 752.628 320.26 753.443 320.842C754.257 321.424 755.072 322.006 755.771 322.588C756.12 322.821 756.469 323.17 756.935 323.403C757.284 323.752 757.633 323.985 757.866 324.334C758.448 324.916 759.147 325.498 759.729 325.964C761.941 328.176 763.571 330.039 764.386 331.319C764.851 332.018 765.2 332.483 765.433 332.832C765.899 333.415 766.015 333.531 766.015 333.531Z" fill="white"/>
<path d="M738.077 386.617C738.077 386.617 737.844 386.733 737.495 386.849C737.03 386.966 736.447 387.199 735.865 387.431C735.167 387.664 734.236 388.014 733.188 388.246C732.14 388.479 730.976 388.828 729.579 389.061C728.88 389.178 728.182 389.294 727.483 389.411C726.785 389.527 725.97 389.643 725.155 389.76C723.525 389.993 721.895 390.109 720.033 390.225C716.424 390.342 712.466 390.225 708.391 389.643C704.317 389.061 700.475 388.014 696.983 386.966C695.236 386.384 693.723 385.802 692.209 385.103C691.511 384.754 690.812 384.521 690.114 384.172C689.415 383.823 688.833 383.473 688.251 383.24C686.971 382.658 686.039 381.96 685.108 381.494C684.177 380.912 683.362 380.446 682.78 379.981C682.198 379.632 681.732 379.282 681.383 378.933C681.034 378.7 680.917 378.584 680.917 378.584C680.917 378.584 681.15 378.7 681.499 378.817C681.849 379.05 682.431 379.399 683.013 379.748C683.595 380.214 684.41 380.679 685.341 381.145C686.272 381.611 687.32 382.309 688.601 382.891C689.183 383.24 689.881 383.473 690.463 383.823C691.162 384.172 691.86 384.405 692.559 384.754C693.956 385.452 695.586 385.918 697.332 386.5C700.708 387.548 704.55 388.596 708.624 389.178C712.699 389.76 716.657 389.876 720.266 389.76C722.012 389.643 723.758 389.643 725.272 389.411C726.086 389.294 726.785 389.294 727.6 389.178C728.298 389.061 728.997 388.945 729.695 388.828C731.092 388.596 732.257 388.363 733.304 388.13C734.352 387.897 735.283 387.664 735.982 387.431C736.68 387.199 737.262 387.082 737.612 386.966C737.844 386.617 737.961 386.617 738.077 386.617Z" fill="white"/>
<path d="M551.23 107.102C551.23 107.102 550.997 107.452 550.647 108.034C550.182 108.616 549.6 109.431 548.785 110.362C547.155 112.225 544.943 114.786 542.266 117.463C540.985 118.744 539.704 120.257 537.958 120.723C537.143 120.956 536.212 120.956 535.513 120.723C534.815 120.374 534.233 119.792 533.884 119.326C533.302 118.162 533.418 116.998 533.418 116.416C533.534 115.717 533.651 115.368 533.651 115.368C533.651 115.368 533.651 115.717 533.651 116.416C533.651 117.114 533.651 118.162 534.233 119.093C534.582 119.559 535.048 120.025 535.63 120.257C536.212 120.49 537.027 120.49 537.725 120.257C539.239 119.792 540.403 118.395 541.8 117.114C544.477 114.437 546.806 111.875 548.436 110.129C550.065 108.15 551.113 106.986 551.23 107.102Z" fill="#EB996E"/>
<path d="M560.077 107.102C560.077 107.102 559.844 107.452 559.378 108.034C558.913 108.616 558.214 109.431 557.283 110.362C556.351 111.41 555.304 112.458 554.139 113.738C553.557 114.32 552.975 115.019 552.277 115.717C551.578 116.416 550.88 117.114 550.065 117.696C549.25 118.278 548.202 118.744 547.271 118.86C546.223 118.977 545.175 118.511 544.593 117.696C544.361 117.347 544.128 116.765 544.128 116.299C544.128 115.834 544.361 115.368 544.477 115.019C544.943 114.32 545.292 113.738 545.758 113.272C546.572 112.225 547.155 111.41 547.62 110.828C548.086 110.246 548.319 109.896 548.319 110.013C548.319 110.013 548.202 110.362 547.737 111.061C547.387 111.643 546.805 112.574 545.99 113.622C545.641 114.204 545.175 114.786 544.826 115.368C544.477 115.95 544.361 116.765 544.826 117.347C545.292 117.929 546.107 118.278 546.922 118.278C547.737 118.162 548.668 117.813 549.483 117.231C550.298 116.649 550.996 115.95 551.578 115.252C552.277 114.553 552.859 113.971 553.441 113.272C554.605 112.108 555.653 110.944 556.701 110.013C557.632 109.082 558.33 108.383 558.913 107.801C559.727 107.335 560.077 107.102 560.077 107.102Z" fill="#EB996E"/>
<path d="M681.614 463.451C683.593 459.144 687.784 455.884 692.557 455.069C697.214 454.254 702.336 455.884 705.596 459.26C703.384 463.334 699.309 466.012 694.885 467.525C689.763 469.388 684.175 467.293 681.614 463.451Z" fill="#A016A3"/>
<path d="M673.349 465.43C673.349 465.314 674.629 464.848 676.725 464.382C678.82 463.917 681.731 463.335 684.99 462.752C688.25 462.17 691.16 461.821 693.372 461.588C695.468 461.355 696.865 461.239 696.865 461.355C696.865 461.472 695.584 461.705 693.489 462.054C691.16 462.403 688.366 462.869 685.223 463.451C681.964 464.033 679.053 464.499 676.958 464.848C674.746 465.197 673.465 465.43 673.349 465.43Z" fill="#263238"/>
<path d="M265.544 389.76C270.434 393.834 273.228 400.47 272.529 406.756C271.831 413.159 267.756 418.98 262.052 421.89C257.861 411.064 256.114 399.306 265.544 389.76Z" fill="#A016A3"/>
<path d="M281.726 398.142C282.192 406.407 286.965 414.323 294.183 418.514C301.284 422.705 310.597 422.938 318.048 419.329C309.899 406.407 298.839 395.697 281.726 398.142Z" fill="#A016A3"/>
<path d="M244.706 357.745C244.706 357.745 244.939 357.978 245.288 358.328C245.637 358.793 246.103 359.375 246.685 360.074C247.965 361.587 249.712 363.799 252.04 366.477C256.58 371.832 262.983 379.166 270.55 386.733C274.392 390.575 278.001 394.067 281.493 397.094C284.986 400.121 288.245 402.798 291.039 405.01C293.833 407.106 296.161 408.736 297.908 409.667C299.538 410.715 300.585 411.064 300.585 411.18C300.585 411.18 300.352 411.064 299.887 410.947C299.421 410.715 298.723 410.482 297.791 409.9C296.045 408.968 293.6 407.455 290.806 405.359C288.012 403.264 284.753 400.586 281.144 397.56C277.651 394.533 273.926 390.924 270.084 387.199C262.517 379.632 256.114 372.181 251.691 366.826C249.479 364.148 247.733 361.82 246.568 360.307C245.986 359.608 245.521 358.91 245.171 358.444C244.822 357.978 244.589 357.745 244.706 357.745Z" fill="#263238"/>
<path d="M264.613 406.291C264.497 406.291 264.846 404.661 265.195 401.983C265.545 399.306 265.777 395.697 265.312 391.622C264.846 387.548 263.915 384.055 263.1 381.494C262.285 378.933 261.47 377.42 261.586 377.42C261.586 377.42 261.819 377.769 262.168 378.467C262.518 379.166 262.983 380.097 263.449 381.378C264.38 383.823 265.428 387.548 265.894 391.622C266.359 395.697 266.01 399.422 265.545 402.1C265.312 403.38 265.079 404.545 264.846 405.243C264.846 405.942 264.73 406.407 264.613 406.291Z" fill="#263238"/>
<path d="M778.472 170.782C775.561 166.94 774.747 161.701 776.26 157.161C777.773 152.621 781.615 149.012 786.155 147.615C788.6 151.573 789.066 156.346 788.367 161.003C787.436 166.358 782.896 170.316 778.472 170.782Z" fill="#A016A3"/>
<path d="M776.143 178.931C776.026 178.931 776.259 177.534 776.841 175.438C777.423 173.343 778.238 170.433 779.286 167.406C780.334 164.263 781.381 161.469 782.196 159.49C783.011 157.51 783.593 156.23 783.593 156.346C783.71 156.346 783.244 157.627 782.546 159.722C781.731 161.934 780.799 164.728 779.752 167.639C778.704 170.782 777.772 173.576 777.074 175.671C776.608 177.65 776.259 178.931 776.143 178.931Z" fill="#263238"/>
<path d="M727.132 257.395C724.688 248.548 727.016 238.536 732.953 231.434C738.89 224.333 748.437 220.608 757.633 221.539C759.263 230.387 756.469 239.351 751.929 247.034C746.341 256.115 735.514 259.956 727.132 257.395Z" fill="#A016A3"/>
<path d="M692.674 291.854C692.674 291.854 692.79 291.621 693.139 291.272C693.489 290.806 694.071 290.224 694.653 289.526C695.933 288.012 697.912 285.917 700.357 283.356C705.247 278.234 712.115 271.249 719.682 263.565C727.249 255.882 734.234 249.013 739.24 244.007C741.685 241.563 743.78 239.584 745.177 238.187C745.876 237.488 746.458 237.022 746.807 236.557C747.156 236.207 747.389 235.975 747.389 236.091C747.389 236.091 747.273 236.324 746.923 236.673C746.574 237.139 745.992 237.604 745.41 238.303C744.013 239.816 742.034 241.795 739.589 244.357C734.583 249.479 727.715 256.347 720.148 264.031C712.581 271.714 705.712 278.583 700.706 283.705C698.262 286.15 696.283 288.245 694.886 289.642C694.187 290.341 693.721 290.806 693.256 291.272C692.907 291.621 692.79 291.854 692.674 291.854Z" fill="#263238"/>
<g opacity="0.3">
<path d="M727.132 257.395C724.688 248.548 727.016 238.536 732.953 231.434C738.89 224.333 748.437 220.608 757.633 221.539C759.263 230.387 756.469 239.351 751.929 247.034C746.341 256.115 735.514 259.956 727.132 257.395Z" fill="black"/>
</g>
<path d="M711.184 260.771C706.178 258.21 702.57 252.971 701.871 247.383C701.173 241.795 703.384 235.858 707.575 232.133C712.232 235.043 715.259 240.049 716.772 245.288C718.635 251.574 715.841 258.094 711.184 260.771Z" fill="#A016A3"/>
<g opacity="0.3">
<path d="M711.184 260.771C706.178 258.21 702.569 252.971 701.871 247.383C701.172 241.795 703.384 235.858 707.575 232.133C712.232 235.043 715.259 240.049 716.772 245.288C718.635 251.574 715.841 258.094 711.184 260.771Z" fill="black"/>
</g>
<path d="M713.047 270.783C713.047 270.783 712.931 270.434 712.698 269.735C712.465 269.037 712.232 267.989 711.999 266.708C711.534 264.147 710.952 260.655 710.486 256.813C710.02 252.971 709.671 249.362 709.555 246.801C709.322 244.24 709.322 242.61 709.438 242.61C709.555 242.61 709.787 244.124 710.02 246.685C710.369 249.362 710.719 252.855 711.184 256.58C711.65 260.422 712.116 263.914 712.465 266.476C712.814 269.153 713.163 270.667 713.047 270.783Z" fill="#263238"/>
<path d="M493.254 395.697C496.747 387.315 504.779 381.029 513.743 379.399C522.707 377.769 532.37 380.912 538.656 387.548C525.385 397.792 509.901 404.777 493.254 395.697Z" fill="#A016A3"/>
<g opacity="0.3">
<path d="M493.254 395.697C496.747 387.315 504.779 381.029 513.743 379.399C522.707 377.769 532.37 380.912 538.656 387.548C525.385 397.792 509.902 404.777 493.254 395.697Z" fill="black"/>
</g>
<path d="M485.803 399.888C485.803 399.888 486.153 399.539 486.851 399.073C487.55 398.607 488.597 397.909 489.878 397.094C492.555 395.581 496.281 393.718 500.705 392.204C505.128 390.691 509.319 389.993 512.346 389.643C513.86 389.527 515.14 389.411 515.955 389.411C516.77 389.411 517.236 389.411 517.236 389.411C517.236 389.527 515.373 389.643 512.346 390.109C509.319 390.575 505.245 391.39 500.821 392.787C496.397 394.184 492.672 396.046 489.994 397.443C487.433 398.957 485.803 399.888 485.803 399.888Z" fill="#263238"/>
<path d="M186.382 244.007C192.785 241.097 200.584 241.446 206.522 245.171C212.459 248.897 216.417 255.649 216.65 262.634C203.728 261.819 191.271 257.861 186.382 244.007Z" fill="#A016A3"/>
<g opacity="0.3">
<path d="M186.382 244.007C192.785 241.097 200.584 241.446 206.522 245.171C212.459 248.897 216.417 255.649 216.65 262.634C203.728 261.819 191.271 257.861 186.382 244.007Z" fill="black"/>
</g>
<path d="M179.979 242.494C179.979 242.494 180.328 242.494 181.027 242.494C181.725 242.61 182.656 242.727 183.821 242.96C186.149 243.425 189.292 244.357 192.552 245.754C195.811 247.267 198.605 248.897 200.584 250.294C201.516 250.992 202.331 251.574 202.796 252.04C203.262 252.506 203.495 252.738 203.495 252.738C203.378 252.855 202.331 251.924 200.352 250.643C198.373 249.362 195.579 247.733 192.319 246.219C189.059 244.822 185.916 243.891 183.704 243.309C181.376 242.843 179.979 242.61 179.979 242.494Z" fill="#263238"/>
<path d="M603.498 381.494C602.8 375.208 605.361 368.689 610.134 364.614C614.907 360.539 621.775 359.142 627.829 360.889C623.405 371.599 616.537 381.145 603.498 381.494Z" fill="#A016A3"/>
<path d="M600.471 386.5C600.354 386.5 600.936 385.22 601.868 383.357C602.915 381.494 604.545 379.05 606.641 376.721C608.853 374.276 611.064 372.414 612.811 371.25C614.557 369.969 615.721 369.387 615.721 369.503C615.721 369.62 614.673 370.318 613.043 371.599C611.414 372.879 609.202 374.859 607.106 377.187C605.011 379.515 603.265 381.96 602.217 383.706C601.169 385.452 600.471 386.5 600.471 386.5Z" fill="#263238"/>
<path d="M695.12 320.958C693.257 315.021 694.538 308.036 698.496 303.146C702.454 298.257 708.973 295.579 715.143 296.162C712.815 307.57 707.925 318.164 695.12 320.958Z" fill="#A016A3"/>
<g opacity="0.3">
<path d="M695.12 320.958C693.257 315.021 694.538 308.036 698.496 303.146C702.454 298.257 708.973 295.579 715.143 296.162C712.815 307.57 707.925 318.164 695.12 320.958Z" fill="black"/>
</g>
<path d="M693.024 326.546C692.908 326.546 693.257 325.265 693.839 323.286C694.538 321.307 695.702 318.63 697.332 315.836C698.961 313.042 700.824 310.83 702.337 309.2C703.851 307.687 704.782 306.872 704.899 306.872C705.015 306.988 704.084 307.92 702.687 309.433C701.29 311.063 699.543 313.275 697.914 316.069C696.284 318.746 695.12 321.424 694.305 323.403C693.49 325.265 693.141 326.546 693.024 326.546Z" fill="#263238"/>
<path d="M4.54034 237.721C5.93733 231.551 10.4775 226.312 16.4147 224.1C22.2355 221.888 29.2205 222.82 34.3428 226.429C26.6593 235.043 16.9968 241.795 4.54034 237.721Z" fill="#A016A3"/>
<path d="M0.000244141 241.446C0.000244141 241.446 0.815154 240.398 2.44497 239.001C4.07479 237.604 6.40311 235.858 9.19708 234.345C11.9911 232.831 14.785 231.784 16.7641 231.202C18.7432 230.62 20.1402 230.387 20.1402 230.503C20.1402 230.62 18.8596 230.969 16.8805 231.667C14.9015 232.366 12.2239 233.413 9.42992 234.927C6.63594 236.44 4.30763 238.187 2.67781 239.467C1.04799 240.631 0.11666 241.563 0.000244141 241.446Z" fill="#263238"/>
<path d="M536.677 85.7984L545.99 68.9181C541.683 62.166 539.238 54.1333 539.121 45.5185C538.889 20.722 558.796 0.465658 583.592 0.232826C608.389 -5.24521e-06 628.645 19.9071 628.878 44.7036C629.111 69.5002 609.204 89.7565 584.407 89.9893C574.046 90.1058 564.5 86.6133 556.817 80.9089L536.677 85.7984Z" fill="white"/>
<path d="M536.677 85.7984C537.724 85.5655 544.011 83.9357 556.933 80.6761L556.816 80.9089L556.118 79.9776L557.049 80.6761C559.61 82.6551 562.754 84.5178 566.246 86.0312C569.855 87.5446 573.93 88.8252 578.47 89.2908C580.682 89.5237 583.126 89.7565 585.571 89.5237C586.735 89.4072 588.016 89.4072 589.296 89.2908C590.577 89.058 591.741 88.9416 593.022 88.7087C598.028 87.661 603.15 85.6819 607.923 82.6551C612.696 79.6283 617.12 75.5538 620.612 70.5479C624.105 65.542 626.782 59.7212 627.946 53.3184C629.111 46.9155 628.994 40.1634 627.248 33.6441C625.502 27.1249 622.358 20.722 617.585 15.4833L615.723 13.5042C615.141 12.8057 614.442 12.3401 613.744 11.6416C613.045 11.0595 612.463 10.361 611.765 9.89533L609.669 8.38193C608.971 7.79985 608.156 7.33419 607.457 6.98494L605.013 5.82078C604.198 5.47154 603.383 5.12229 602.684 4.65663C601.869 4.30738 601.171 3.84172 600.356 3.60888C593.72 1.16416 586.852 0.23283 580.332 0.698492C573.813 1.28057 567.527 3.14322 562.172 6.28645C556.816 9.31325 552.276 13.3878 548.784 17.928C545.291 22.4682 542.847 27.4741 541.333 32.3636C539.82 37.3694 539.47 42.2589 539.47 46.7991C539.82 55.9959 542.847 63.563 546.223 68.9181V69.0345V69.1509C540.169 79.7447 537.142 84.9834 536.677 85.7984C537.142 84.867 540.053 79.6283 545.873 68.9181V69.0345C542.497 63.6794 539.354 56.1124 539.005 46.7991C538.888 42.1425 539.354 37.253 540.867 32.1307C542.381 27.1249 544.826 22.119 548.435 17.4624C551.927 12.9221 556.584 8.73117 561.939 5.70437C567.41 2.56114 573.697 0.582077 580.332 0.116414C586.968 -0.465665 593.953 0.465661 600.472 3.02681C601.287 3.25964 602.102 3.7253 602.917 4.07455C603.732 4.42379 604.547 4.77304 605.362 5.2387L607.69 6.63569C608.505 7.10136 609.204 7.56702 609.902 8.03268L612.114 9.6625C612.812 10.1282 613.511 10.8267 614.209 11.4087C614.908 11.9908 615.606 12.5729 616.188 13.2714L618.051 15.2505C622.824 20.4892 626.084 27.0084 627.83 33.6441C629.576 40.2798 629.809 47.1483 628.529 53.6676C627.364 60.0705 624.687 66.0077 621.078 71.13C617.585 76.1359 613.045 80.3268 608.272 83.3536C603.499 86.3804 598.26 88.3595 593.255 89.4072C591.974 89.6401 590.693 89.8729 589.413 89.9893C588.132 90.1057 586.968 90.1057 585.688 90.2222C583.243 90.3386 580.914 90.2222 578.586 89.8729C574.046 89.2908 569.855 88.0103 566.246 86.4969C562.637 84.867 559.494 83.0044 556.933 81.0253L557.166 80.7925L557.282 81.0253H557.049C544.127 84.0521 537.724 85.5655 536.677 85.7984Z" fill="#444444"/>
<path d="M571.603 37.3694H577.423C577.423 37.3694 577.423 32.48 582.429 32.3636C585.107 32.2471 586.504 33.9934 587.086 35.3904C587.784 36.9038 587.551 38.65 586.737 40.1634C585.805 41.7932 583.593 43.3066 579.635 42.6081L579.752 55.7631H585.572L585.456 48.0797C585.456 48.0797 593.489 45.8678 593.489 37.0202C593.372 28.5218 585.689 26.5428 582.429 26.6592C579.868 26.4264 571.37 27.1249 571.603 37.3694Z" fill="#A016A3"/>
<path d="M585.572 58.2998L579.751 58.3556L579.804 63.8272L585.625 63.7713L585.572 58.2998Z" fill="#A016A3"/>
</g>
<defs>
<clipPath id="clip0_1_26">
<rect width="788.6" height="489.877" fill="white"/>
</clipPath>
</defs>
</svg>
