<svg width="175" height="145" viewBox="0 0 175 145" fill="none" xmlns="http://www.w3.org/2000/svg">
<path d="M149.98 27.0165C167.144 43.494 178.953 66.0133 173.769 83.3146C168.62 100.65 146.41 112.768 129.246 123.307C112.082 133.811 99.9637 142.737 86.3012 144.247C72.6729 145.723 57.5342 139.819 40.5075 129.28C23.4464 118.776 4.49731 103.637 0.721219 84.7221C-3.05487 65.8416 8.41071 43.1851 25.4374 26.7076C42.4985 10.2301 65.1551 -0.068315 87.7429 0.00034116C110.297 0.103325 132.816 10.5391 149.98 27.0165Z" fill="#8C40F5"/>
<path d="M41.3075 91.0526C40.6478 91.0988 40.0133 91.0469 39.404 90.897C38.7963 90.7684 38.2587 90.4211 37.7914 89.855C37.9328 88.8186 38.1115 87.7047 38.3276 86.5134C38.5635 85.2994 38.8192 84.0625 39.0947 82.8029C39.3687 81.522 39.6449 80.273 39.9233 79.056C40.2216 77.8161 40.5045 76.6629 40.772 75.5963C41.0396 74.5297 41.2842 73.5931 41.5058 72.7863C41.7274 71.9795 41.8986 71.3688 42.0193 70.954C42.0712 70.7793 42.1605 70.5271 42.2871 70.1975C42.4123 69.8466 42.5694 69.4934 42.7584 69.138C42.9474 68.7826 43.172 68.4782 43.4323 68.2248C43.6911 67.9501 43.9801 67.8016 44.2993 67.7792C44.5973 67.7584 44.9027 67.844 45.2155 68.0359C44.6629 69.6143 44.1109 71.3531 43.5593 73.2522C43.0291 75.1498 42.5246 77.1098 42.0458 79.1321C41.5655 81.1331 41.1355 83.0879 40.7557 84.9964C40.3759 86.9048 40.0694 88.6371 39.836 90.1932C40.1369 90.2149 40.3839 90.2297 40.5769 90.2376C40.7912 90.244 41.0048 90.2398 41.2176 90.2249C42.5796 90.1296 43.8661 89.7189 45.077 88.9927C46.3107 88.2862 47.4323 87.3524 48.4418 86.1911C49.471 85.0071 50.3515 83.6838 51.0833 82.2212C51.8136 80.7373 52.3471 79.1923 52.6839 77.5862C53.0405 75.9574 53.1637 74.3556 53.0536 72.7808C52.933 71.057 52.5574 69.6611 51.9267 68.5932C51.2945 67.5039 50.4704 66.7275 49.4542 66.264C48.4381 65.8004 47.2809 65.614 45.9827 65.7047C44.5995 65.8015 43.3738 66.1652 42.3059 66.7959C41.238 67.4266 40.4175 68.2325 39.8445 69.2135C39.2716 70.1945 39.026 71.2702 39.1079 72.4407C39.1257 72.6961 39.152 72.9188 39.1867 73.1089C39.2426 73.2974 39.2971 73.4647 39.3501 73.6107C38.6478 73.6598 38.1358 73.5245 37.814 73.2048C37.5121 72.8624 37.344 72.4464 37.3097 71.957C37.2577 71.2121 37.461 70.4494 37.9196 69.6689C38.3981 68.8655 39.0725 68.1126 39.943 67.4102C40.8347 66.7063 41.8737 66.1204 43.06 65.6525C44.2447 65.1633 45.5181 64.8711 46.8801 64.7759C48.7955 64.642 50.3552 64.9285 51.5595 65.6356C52.7836 66.3198 53.7077 67.3031 54.332 68.5854C54.9563 69.8676 55.3258 71.328 55.4403 72.9667C55.5698 74.8182 55.4068 76.6153 54.9512 78.358C54.4942 80.0794 53.8048 81.6887 52.883 83.186C51.981 84.6605 50.9181 85.9752 49.6943 87.13C48.4691 88.2636 47.1317 89.1698 45.6822 89.8485C44.2554 90.5471 42.7972 90.9485 41.3075 91.0526ZM62.7055 89.5563C61.4286 89.6456 60.3034 89.457 59.3298 88.9904C58.3562 88.5239 57.5836 87.8722 57.0118 87.0354C56.4598 86.1758 56.1474 85.2246 56.0745 84.1818C56.006 83.2029 56.1519 82.2303 56.512 81.2642C56.8722 80.298 57.3979 79.4058 58.0891 78.5876C58.8002 77.7466 59.6387 77.0464 60.6047 76.487C61.5693 75.9063 62.6224 75.5226 63.7641 75.3358C62.8865 74.7129 62.2143 73.9686 61.7475 73.1031C61.3019 72.236 61.0479 71.3556 60.9854 70.4618C60.9065 69.3339 61.1088 68.2505 61.5921 67.2116C62.0953 66.1499 62.8254 65.2755 63.7825 64.5884C64.7381 63.88 65.8436 63.4819 67.0992 63.3941C68.291 63.3108 69.2163 63.5455 69.8751 64.0982C70.534 64.6509 70.9021 65.4806 70.9794 66.5872C71.0345 67.3746 70.9497 68.1504 70.7252 68.9146C70.5006 69.6788 70.2025 70.3091 69.8309 70.8056C69.4806 71.3006 69.1245 71.5607 68.7627 71.586C68.5286 71.6024 68.2985 71.5223 68.0723 71.3456C67.8446 71.1477 67.6572 70.9148 67.5102 70.6471C68.2089 69.9353 68.7883 69.1998 69.2485 68.4405C69.7285 67.6584 69.9394 66.8524 69.8814 66.0224C69.8352 65.3627 69.608 64.8654 69.1996 64.5304C68.7913 64.1954 68.2147 64.0539 67.4698 64.106C66.4909 64.1744 65.6817 64.5304 65.0424 65.1739C64.4016 65.7961 63.9345 66.6094 63.6412 67.6136C63.3676 68.5951 63.2718 69.6711 63.3536 70.8415C63.4072 71.6077 63.5823 72.4294 63.8789 73.3069C64.1755 74.1843 64.7299 74.9261 65.5422 75.5323C64.1327 75.8661 62.9257 76.4958 61.9211 77.4215C60.9379 78.3457 60.1885 79.4032 59.673 80.594C59.1787 81.7834 58.971 82.9421 59.0499 84.07C59.099 84.7723 59.2766 85.4762 59.5825 86.182C59.9083 86.8649 60.3855 87.4196 61.0141 87.8462C61.6442 88.294 62.4594 88.4829 63.4596 88.4129C64.5875 88.3341 65.6825 87.9367 66.7445 87.2209C67.8277 86.5036 68.8011 85.5908 69.6646 84.4825C70.528 83.3743 71.194 82.1943 71.6625 80.9425L72.1317 81.2305C71.4881 82.7297 70.7063 84.0889 69.7864 85.308C68.8666 86.5272 67.8125 87.5098 66.6244 88.2558C65.4377 89.0231 64.1314 89.4566 62.7055 89.5563ZM79.3384 88.3932C78.1892 88.4736 77.089 88.3367 76.0377 87.9825C74.9879 87.6496 74.1141 87.0798 73.4161 86.2732C72.7394 85.4651 72.3564 84.4226 72.2671 83.1457C72.1898 82.0391 72.3423 81.1623 72.7248 80.5154C73.1285 79.867 73.6407 79.3928 74.2613 79.0928C74.8819 78.7927 75.4795 78.6226 76.054 78.5825C75.5226 79.2398 75.134 79.9513 74.8881 80.717C74.6423 81.4827 74.5454 82.2379 74.5975 82.9828C74.6525 83.7702 74.8741 84.4925 75.2622 85.1497C75.6716 85.8054 76.2523 86.3101 77.0041 86.6639C77.7574 87.0389 78.6874 87.1877 79.794 87.1103C80.7517 87.0434 81.6754 86.797 82.5652 86.3712C83.4565 85.9667 84.1656 85.4039 84.6926 84.6827C85.2394 83.9388 85.4771 83.056 85.4056 82.0345C85.3416 81.1194 85.0525 80.3484 84.5382 79.7214C84.0238 79.0944 83.3764 78.5516 82.5958 78.0929C81.8366 77.6328 81.0256 77.1976 80.1628 76.7875C79.3001 76.3773 78.4785 75.9429 77.6979 75.4842C76.9372 75.0028 76.2989 74.4379 75.7831 73.7897C75.2673 73.1414 74.9759 72.3385 74.9089 71.3808C74.8464 70.487 74.9937 69.5357 75.3509 68.527C75.7081 67.5183 76.2499 66.5501 76.9763 65.6226C77.7239 64.6935 78.6325 63.9242 79.7019 63.3148C80.7911 62.6826 82.0274 62.3182 83.4107 62.2214C84.6663 62.1336 85.5604 62.3812 86.093 62.9641C86.6242 63.5258 86.9217 64.2641 86.9857 65.1792C87.0393 65.9454 86.959 66.785 86.7448 67.6982C86.5505 68.5886 86.29 69.4515 85.9635 70.287C85.6355 71.1012 85.3206 71.7969 85.0188 72.374C84.6298 72.3156 84.342 72.1754 84.1553 71.9532C83.9885 71.7082 83.8932 71.4155 83.8694 71.075C83.8381 70.6281 83.8982 70.1106 84.0495 69.5226C84.2009 68.9347 84.372 68.3239 84.563 67.6904C84.7752 67.0553 84.957 66.4438 85.1083 65.8559C85.2582 65.2466 85.3168 64.7079 85.284 64.2397C85.2543 63.814 85.1035 63.4931 84.8318 63.2769C84.5585 63.0393 84.0814 62.9444 83.4004 62.992C82.4002 63.062 81.4908 63.3608 80.6723 63.8885C79.8538 64.4162 79.1513 65.0748 78.565 65.8643C77.9771 66.6325 77.5306 67.4336 77.2254 68.2676C76.9414 69.1001 76.8225 69.8462 76.8686 70.506C76.9237 71.2934 77.1948 71.9587 77.6819 72.5021C78.1888 73.0227 78.8203 73.4918 79.5766 73.9093C80.3315 74.3057 81.1296 74.7096 81.971 75.1213C82.8322 75.5101 83.644 75.9559 84.4062 76.4587C85.1685 76.9614 85.7999 77.5802 86.3004 78.3151C86.8206 79.0272 87.1187 79.9259 87.1946 81.0112C87.272 82.1179 87.0957 83.1139 86.6658 83.9994C86.2343 84.8636 85.6237 85.612 84.8339 86.2447C84.0654 86.8758 83.2021 87.3746 82.244 87.741C81.2859 88.1074 80.3174 88.3248 79.3384 88.3932ZM88.2943 87.7991C88.3243 87.0057 88.5715 86.411 89.0356 86.015C89.48 85.6418 90.0816 85.3752 90.8402 85.2152C91.5989 85.0552 92.4252 84.944 93.319 84.8815C93.644 84.0247 93.9564 82.987 94.2561 81.7685C94.5544 80.5287 94.8254 79.2052 95.0692 77.7981C95.3342 76.3895 95.5871 74.9604 95.8279 73.5107C96.0672 72.0398 96.2897 70.6342 96.4954 69.2939C96.7011 67.9536 96.8951 66.7532 97.0776 65.6925C97.2799 64.6091 97.4658 63.7514 97.6355 63.1193C96.5303 63.218 95.5855 63.3161 94.8011 63.4138C94.0379 63.5099 93.3188 63.6243 92.6438 63.7571C91.99 63.8884 91.2746 64.056 90.4977 64.26C90.5901 63.4409 91.1329 62.7935 92.1261 62.3177C93.1179 61.8206 94.6885 61.497 96.8379 61.3467C97.9019 61.2723 98.9796 61.2397 100.071 61.2489C101.184 61.2566 102.201 61.2817 103.124 61.3241C104.045 61.3453 104.753 61.3813 105.248 61.4322C104.773 61.9787 104.253 62.3358 103.687 62.5037C103.141 62.6488 102.656 62.7362 102.23 62.766C101.57 62.8121 100.942 62.856 100.347 62.8977C99.772 62.9379 99.2407 62.9857 98.7527 63.0412C98.6989 63.4941 98.6203 64.2053 98.517 65.1749C98.4122 66.1231 98.286 67.2226 98.1382 68.4733C97.9889 69.7027 97.8327 70.9861 97.6696 72.3234C97.505 73.6394 97.3367 74.9022 97.1646 76.1118C97.0124 77.2987 96.8596 78.3252 96.7063 79.1913C96.4611 80.5771 96.1584 81.7531 95.7982 82.7192C95.4381 83.6854 94.9742 84.3915 94.4066 84.8375C95.5177 84.8239 96.7062 84.8478 97.9723 84.9089C99.2398 84.9914 100.374 85.0083 101.376 84.9596C100.802 85.6199 100.18 86.0484 99.5092 86.245C98.8599 86.4401 98.3118 86.5532 97.8649 86.5845C97.0136 86.644 96.173 86.7028 95.343 86.7608C94.5358 86.8387 93.7286 86.9165 92.9214 86.9943C92.1355 87.0707 91.3511 87.1683 90.5681 87.2872C89.8079 87.4259 89.05 87.5965 88.2943 87.7991ZM109.956 86.2523C108.849 86.3297 107.816 86.0811 106.856 85.5067C105.919 84.952 105.144 84.1081 104.53 82.9748C103.914 81.8202 103.549 80.413 103.433 78.753C103.318 77.1144 103.457 75.4366 103.851 73.7196C104.244 72.0027 104.823 70.3476 105.588 68.7543C106.375 67.1595 107.291 65.7268 108.335 64.4562C109.378 63.1643 110.493 62.1241 111.678 61.3355C112.884 60.5454 114.094 60.1079 115.307 60.0231C116.116 59.9665 116.777 60.0914 117.29 60.3977C117.803 60.704 118.186 61.1263 118.437 61.6647C118.687 62.1819 118.835 62.7597 118.879 63.3981C118.931 64.143 118.855 64.8861 118.65 65.6275C118.444 66.3477 118.144 66.9567 117.751 67.4547C117.358 67.9526 116.907 68.2195 116.396 68.2552C116.226 68.2671 116.041 68.2265 115.842 68.1335C115.664 68.039 115.502 67.8579 115.355 67.5902C115.638 67.3565 115.952 66.9497 116.296 66.3696C116.662 65.788 116.959 65.147 117.188 64.4466C117.439 63.7448 117.544 63.1066 117.503 62.532C117.469 62.0425 117.292 61.6486 116.972 61.3502C116.673 61.0503 116.172 60.9249 115.47 60.9741C114.555 61.038 113.623 61.4774 112.675 62.2922C111.748 63.1055 110.86 64.1727 110.012 65.4938C109.183 66.7921 108.45 68.2334 107.812 69.8178C107.174 71.4021 106.688 73.008 106.353 74.6353C106.038 76.2612 105.931 77.787 106.031 79.2129C106.166 81.1495 106.676 82.6322 107.561 83.661C108.447 84.7111 109.507 85.193 110.742 85.1067C111.572 85.0486 112.337 84.685 113.039 84.0157C113.742 83.3678 114.348 82.5449 114.855 81.547C115.362 80.5279 115.745 79.4425 116.007 78.2908C116.29 77.1376 116.437 76.0366 116.45 74.9878C115.65 74.8726 115.005 74.8109 114.512 74.8025C114.018 74.7729 113.558 74.773 113.133 74.8028C112.856 74.8221 112.559 74.8536 112.241 74.8972C111.943 74.918 111.592 74.9426 111.188 74.9709C111.294 74.3433 111.519 73.8998 111.865 73.6404C112.23 73.3582 112.689 73.1978 113.242 73.1591C113.838 73.1174 114.463 73.1807 115.116 73.3489C115.789 73.4943 116.443 73.6624 117.076 73.8534C117.71 74.0443 118.265 74.1873 118.742 74.2822L118.59 75.3193C118.26 76.4117 117.996 77.3711 117.797 78.1977C117.597 79.0029 117.444 79.7194 117.338 80.3469C117.252 80.9518 117.193 81.4905 117.162 81.9631C117.152 82.4343 117.161 82.8614 117.187 83.2445C117.217 83.6701 117.257 84.0844 117.306 84.4872C117.377 84.8886 117.438 85.3013 117.489 85.7255C117.138 85.6003 116.817 85.441 116.526 85.2475C116.257 85.0739 116.038 84.8433 115.868 84.5557C115.719 84.2667 115.632 83.9307 115.605 83.5476C115.588 83.3135 115.583 83.0787 115.588 82.8431C115.614 82.606 115.66 82.3462 115.726 82.0636C115.034 83.1812 114.213 84.1368 113.263 84.9303C112.314 85.7238 111.211 86.1645 109.956 86.2523ZM122.147 85.3998C122.331 84.3604 122.571 83.1995 122.866 81.9171C123.161 80.6347 123.515 79.113 123.926 77.3521C124.358 75.5683 124.852 73.4594 125.409 71.0252C125.966 68.5911 126.609 65.7126 127.339 62.3896C127.374 62.2802 127.404 62.0963 127.429 61.8379C127.473 61.5568 127.487 61.2992 127.471 61.0651C127.456 60.8523 127.402 60.685 127.307 60.5633C127.233 60.4188 127.111 60.3525 126.941 60.3644C126.43 60.4001 125.955 60.6365 125.515 61.0736C125.095 61.4879 124.735 62.0049 124.436 62.6246C124.159 63.2428 123.947 63.8885 123.802 64.5616C123.655 65.2134 123.599 65.7947 123.635 66.3055C123.665 66.7311 123.744 67.0998 123.873 67.4116C123.171 67.4607 122.658 67.3254 122.337 67.0057C122.035 66.6633 121.866 66.2367 121.83 65.7259C121.78 65.0024 121.942 64.2639 122.317 63.5106C122.692 62.7573 123.188 62.0596 123.807 61.4176C124.423 60.7543 125.08 60.2165 125.779 59.8041C126.498 59.3902 127.167 59.1617 127.784 59.1186C128.422 59.0739 128.963 59.3141 129.406 59.8391C129.869 60.3414 130.261 61.0625 130.584 62.0023C130.905 62.9208 131.192 63.97 131.445 65.1498C131.699 66.3297 131.945 67.5528 132.183 68.8193C132.385 69.8744 132.587 70.9296 132.79 71.9847C132.99 73.0186 133.188 74.0099 133.382 74.9586C133.576 75.8861 133.753 76.7398 133.914 77.5197C134.076 78.2997 134.217 78.9421 134.338 79.4469C134.417 78.4362 134.551 77.2935 134.74 76.0185C134.948 74.7208 135.175 73.379 135.421 71.9932C135.686 70.5846 135.964 69.2178 136.257 67.8929C136.547 66.5467 136.814 65.3197 137.058 64.212C137.321 63.0816 137.544 62.1464 137.728 61.4065C137.931 60.6438 138.068 60.1637 138.14 59.9662C138.227 59.6821 138.449 59.3351 138.805 58.9253C139.161 58.5154 139.574 58.2941 140.042 58.2614C139.749 59.2656 139.418 60.497 139.049 61.9556C138.7 63.3915 138.35 64.9557 137.998 66.6484C137.644 68.3198 137.304 70.033 136.978 71.7881C136.65 73.5218 136.361 75.1994 136.111 76.8208C135.882 78.4407 135.707 79.9178 135.587 81.2522C135.486 82.5637 135.454 83.6352 135.491 84.4667C134.831 84.5128 134.275 84.3592 133.823 84.0059C133.391 83.6511 133.057 83.0009 132.82 82.0551C132.675 81.5092 132.484 80.7634 132.247 79.8177C132.029 78.8491 131.783 77.7757 131.508 76.5973C131.255 75.4175 130.987 74.1958 130.707 72.9323C130.424 71.6476 130.144 70.3947 129.866 69.1738C129.61 67.9514 129.371 66.8346 129.151 65.8235C128.929 64.7912 128.741 63.9382 128.587 63.2646C127.823 67.0177 127.168 70.1965 126.623 72.8008C126.077 75.3839 125.605 77.502 125.207 79.1551C124.829 80.7854 124.479 82.0503 124.157 82.9496C123.835 83.8489 123.515 84.4701 123.197 84.8131C122.88 85.1774 122.53 85.373 122.147 85.3998Z" fill="white"/>
</svg>
